<svg width="24" height="24" viewBox="0 0 24 24" fill="none" xmlns="http://www.w3.org/2000/svg">
<path d="M22.1217 19.8672C22.4303 20.1435 22.4567 20.6176 22.1805 20.9263C21.9044 21.2349 21.4302 21.2611 21.1215 20.9851L15.7907 16.2151L16.7909 15.0973L22.1217 19.8672Z" fill="#00ADEF"/>
<path d="M17.5 11C17.5 7.41015 14.5899 4.5 11 4.5C7.41015 4.5 4.5 7.41015 4.5 11C4.5 14.5899 7.41015 17.5 11 17.5V19C6.58172 19 3 15.4183 3 11C3 6.58172 6.58172 3 11 3C15.4183 3 19 6.58172 19 11C19 15.4183 15.4183 19 11 19V17.5C14.5899 17.5 17.5 14.5899 17.5 11Z" fill="#00ADEF"/>
</svg>
