<svg width="36" height="41" viewBox="0 0 36 41" fill="none" xmlns="http://www.w3.org/2000/svg">
<path fill-rule="evenodd" clip-rule="evenodd" d="M20.9773 7.45457C20.9773 8.4431 20.5846 9.39115 19.8856 10.0901C19.1866 10.7891 18.2385 11.1818 17.25 11.1818C16.2614 11.1818 15.3134 10.7891 14.6144 10.0901C13.9154 9.39115 13.5227 8.4431 13.5227 7.45457C13.5227 6.46603 13.9154 5.51799 14.6144 4.81899C15.3134 4.11999 16.2614 3.72729 17.25 3.72729C18.2385 3.72729 19.1866 4.11999 19.8856 4.81899C20.5846 5.51799 20.9773 6.46603 20.9773 7.45457ZM19.1136 7.45457C19.1136 7.94883 18.9173 8.42286 18.5678 8.77236C18.2183 9.12186 17.7442 9.3182 17.25 9.3182C16.7557 9.3182 16.2817 9.12186 15.9322 8.77236C15.5827 8.42286 15.3863 7.94883 15.3863 7.45457C15.3863 6.9603 15.5827 6.48628 15.9322 6.13678C16.2817 5.78728 16.7557 5.59093 17.25 5.59093C17.7442 5.59093 18.2183 5.78728 18.5678 6.13678C18.9173 6.48628 19.1136 6.9603 19.1136 7.45457Z" fill="#717375"/>
<path d="M1.0304 38V29.4909H3.90554C4.57308 29.4909 5.11875 29.6114 5.54254 29.8524C5.96911 30.0906 6.28487 30.4133 6.48984 30.8205C6.69482 31.2276 6.7973 31.6819 6.7973 32.1832C6.7973 32.6846 6.69482 33.1402 6.48984 33.5502C6.28764 33.9601 5.97465 34.287 5.55085 34.5307C5.12706 34.7717 4.58416 34.8922 3.92216 34.8922H1.86136V33.9781H3.88892C4.34595 33.9781 4.71296 33.8992 4.98995 33.7413C5.26694 33.5834 5.46776 33.3701 5.5924 33.1015C5.71982 32.83 5.78352 32.5239 5.78352 32.1832C5.78352 31.8425 5.71982 31.5379 5.5924 31.2692C5.46776 31.0005 5.26555 30.79 4.9858 30.6376C4.70604 30.4825 4.33487 30.405 3.8723 30.405H2.0608V38H1.0304ZM8.3242 38V31.6182H9.2715V32.5821H9.33798C9.45431 32.2663 9.66483 32.0101 9.96951 31.8135C10.2742 31.6168 10.6177 31.5185 10.9999 31.5185C11.0719 31.5185 11.1619 31.5199 11.27 31.5226C11.378 31.5254 11.4597 31.5295 11.5151 31.5351V32.5322C11.4819 32.5239 11.4057 32.5115 11.2866 32.4949C11.1703 32.4755 11.047 32.4658 10.9168 32.4658C10.6066 32.4658 10.3296 32.5309 10.0858 32.661C9.84487 32.7885 9.65375 32.9657 9.51248 33.1929C9.37399 33.4172 9.30474 33.6734 9.30474 33.9615V38H8.3242ZM15.0758 38.133C14.4997 38.133 13.9942 37.9958 13.5593 37.7216C13.1272 37.4474 12.7893 37.0638 12.5455 36.5707C12.3045 36.0777 12.184 35.5016 12.184 34.8423C12.184 34.1776 12.3045 33.5973 12.5455 33.1015C12.7893 32.6056 13.1272 32.2206 13.5593 31.9464C13.9942 31.6722 14.4997 31.5351 15.0758 31.5351C15.6519 31.5351 16.1561 31.6722 16.5882 31.9464C17.023 32.2206 17.361 32.6056 17.6019 33.1015C17.8457 33.5973 17.9676 34.1776 17.9676 34.8423C17.9676 35.5016 17.8457 36.0777 17.6019 36.5707C17.361 37.0638 17.023 37.4474 16.5882 37.7216C16.1561 37.9958 15.6519 38.133 15.0758 38.133ZM15.0758 37.2521C15.5134 37.2521 15.8735 37.14 16.1561 36.9156C16.4386 36.6912 16.6477 36.3962 16.7834 36.0306C16.9192 35.665 16.987 35.2689 16.987 34.8423C16.987 34.4158 16.9192 34.0183 16.7834 33.6499C16.6477 33.2815 16.4386 32.9837 16.1561 32.7566C15.8735 32.5295 15.5134 32.4159 15.0758 32.4159C14.6382 32.4159 14.2781 32.5295 13.9955 32.7566C13.713 32.9837 13.5039 33.2815 13.3682 33.6499C13.2324 34.0183 13.1646 34.4158 13.1646 34.8423C13.1646 35.2689 13.2324 35.665 13.3682 36.0306C13.5039 36.3962 13.713 36.6912 13.9955 36.9156C14.2781 37.14 14.6382 37.2521 15.0758 37.2521ZM22.3062 31.6182V32.4491H18.866V31.6182H22.3062ZM19.8964 38V30.7374C19.8964 30.3717 19.9823 30.067 20.154 29.8233C20.3258 29.5795 20.5487 29.3967 20.823 29.2749C21.0972 29.153 21.3866 29.092 21.6913 29.092C21.9323 29.092 22.129 29.1114 22.2813 29.1502C22.4337 29.189 22.5472 29.225 22.622 29.2582L22.3395 30.1058C22.2896 30.0892 22.2204 30.0684 22.1317 30.0435C22.0459 30.0186 21.9323 30.0061 21.791 30.0061C21.467 30.0061 21.2329 30.0878 21.0889 30.2512C20.9476 30.4147 20.877 30.6543 20.877 30.97V38H19.8964ZM23.6804 38V31.6182H24.661V38H23.6804ZM24.179 30.5545C23.9879 30.5545 23.8231 30.4895 23.6846 30.3593C23.5489 30.2291 23.481 30.0726 23.481 29.8898C23.481 29.707 23.5489 29.5505 23.6846 29.4203C23.8231 29.2901 23.9879 29.225 24.179 29.225C24.3702 29.225 24.5336 29.2901 24.6693 29.4203C24.8078 29.5505 24.877 29.707 24.877 29.8898C24.877 30.0726 24.8078 30.2291 24.6693 30.3593C24.5336 30.4895 24.3702 30.5545 24.179 30.5545ZM27.4375 29.4909V38H26.4569V29.4909H27.4375ZM31.9091 38.133C31.2942 38.133 30.7637 37.9972 30.3178 37.7258C29.8746 37.4516 29.5325 37.0693 29.2915 36.579C29.0533 36.086 28.9342 35.5126 28.9342 34.8589C28.9342 34.2053 29.0533 33.6291 29.2915 33.1305C29.5325 32.6292 29.8677 32.2386 30.297 31.9589C30.7291 31.6763 31.2332 31.5351 31.8094 31.5351C32.1418 31.5351 32.47 31.5905 32.7941 31.7013C33.1181 31.8121 33.4131 31.9921 33.679 32.2414C33.945 32.4879 34.1569 32.8148 34.3147 33.2219C34.4726 33.6291 34.5516 34.1305 34.5516 34.726V35.1415H29.6322V34.2939H33.5544C33.5544 33.9338 33.4824 33.6125 33.3384 33.33C33.1971 33.0474 32.9949 32.8245 32.7317 32.661C32.4714 32.4976 32.1639 32.4159 31.8094 32.4159C31.4188 32.4159 31.0809 32.5129 30.7956 32.7067C30.5131 32.8979 30.2956 33.1472 30.1433 33.4546C29.9909 33.7621 29.9148 34.0917 29.9148 34.4435V35.0085C29.9148 35.4905 29.9979 35.899 30.1641 36.2342C30.333 36.5666 30.5671 36.82 30.8662 36.9945C31.1654 37.1663 31.513 37.2521 31.9091 37.2521C32.1667 37.2521 32.3994 37.2161 32.6071 37.1441C32.8176 37.0693 32.999 36.9585 33.1514 36.8117C33.3037 36.6621 33.4214 36.4766 33.5045 36.255L34.4518 36.5209C34.3521 36.8422 34.1846 37.1247 33.9491 37.3685C33.7137 37.6094 33.4228 37.7978 33.0766 37.9335C32.7304 38.0665 32.3412 38.133 31.9091 38.133Z" fill="#717375"/>
<path fill-rule="evenodd" clip-rule="evenodd" d="M17.25 0C11.5892 0 7 4.5892 7 10.25C7 15.9108 11.5892 20.5 17.25 20.5C22.9108 20.5 27.5 15.9108 27.5 10.25C27.5 4.5892 22.9108 0 17.25 0ZM8.86364 10.25C8.86364 12.1975 9.52802 13.9903 10.6415 15.4141C11.4238 14.3874 12.4326 13.5553 13.5895 12.9828C14.7463 12.4103 16.0198 12.1128 17.3106 12.1136C18.5847 12.1122 19.8424 12.4017 20.9876 12.9601C22.1329 13.5185 23.1355 14.3311 23.919 15.3359C24.7264 14.2769 25.27 13.041 25.5049 11.7303C25.7398 10.4196 25.6591 9.07175 25.2697 7.79837C24.8802 6.525 24.1932 5.36266 23.2653 4.40753C22.3375 3.45241 21.1956 2.73196 19.934 2.30579C18.6724 1.87962 17.3275 1.75999 16.0106 1.95679C14.6936 2.15359 13.4424 2.66117 12.3605 3.43753C11.2787 4.21388 10.3972 5.2367 9.78915 6.42134C9.18106 7.60599 8.8638 8.9184 8.86364 10.25ZM17.25 18.6364C15.3248 18.6395 13.4576 17.9772 11.9647 16.7615C12.5656 15.9011 13.3654 15.1986 14.2962 14.7138C15.227 14.2291 16.2611 13.9764 17.3106 13.9773C18.3469 13.9764 19.3685 14.2228 20.2905 14.696C21.2125 15.1692 22.0083 15.8556 22.6117 16.6982C21.1072 17.9533 19.2093 18.6394 17.25 18.6364Z" fill="#717375"/>
</svg>
