<svg width="50" height="44" viewBox="0 0 50 44" fill="none" xmlns="http://www.w3.org/2000/svg">
<path d="M1.0304 32.4909H2.26023L5.15199 39.5541H5.2517L8.14347 32.4909H9.3733V41H8.40937V34.5351H8.32628L5.66719 41H4.73651L2.07741 34.5351H1.99432V41H1.0304V32.4909ZM13.982 41.133C13.3671 41.133 12.8367 40.9972 12.3907 40.7258C11.9476 40.4516 11.6055 40.0693 11.3645 39.579C11.1263 39.086 11.0072 38.5126 11.0072 37.8589C11.0072 37.2053 11.1263 36.6291 11.3645 36.1305C11.6055 35.6292 11.9406 35.2386 12.37 34.9589C12.8021 34.6763 13.3062 34.5351 13.8823 34.5351C14.2147 34.5351 14.5429 34.5905 14.867 34.7013C15.1911 34.8121 15.4861 34.9921 15.752 35.2414C16.0179 35.4879 16.2298 35.8148 16.3877 36.2219C16.5456 36.6291 16.6245 37.1305 16.6245 37.726V38.1415H11.7052V37.2939H15.6274C15.6274 36.9338 15.5553 36.6125 15.4113 36.33C15.27 36.0474 15.0678 35.8245 14.8047 35.661C14.5443 35.4976 14.2369 35.4159 13.8823 35.4159C13.4918 35.4159 13.1538 35.5129 12.8685 35.7067C12.586 35.8979 12.3686 36.1472 12.2162 36.4546C12.0639 36.7621 11.9877 37.0917 11.9877 37.4435V38.0085C11.9877 38.4905 12.0708 38.899 12.237 39.2342C12.406 39.5666 12.64 39.82 12.9392 39.9945C13.2383 40.1663 13.5859 40.2521 13.982 40.2521C14.2396 40.2521 14.4723 40.2161 14.6801 40.1441C14.8906 40.0693 15.072 39.9585 15.2243 39.8117C15.3767 39.6621 15.4944 39.4766 15.5775 39.255L16.5248 39.5209C16.4251 39.8422 16.2575 40.1247 16.0221 40.3685C15.7866 40.6094 15.4958 40.7978 15.1495 40.9335C14.8033 41.0665 14.4141 41.133 13.982 41.133ZM22.6366 36.0474L21.7557 36.2967C21.7003 36.1499 21.6186 36.0073 21.5106 35.8688C21.4053 35.7275 21.2613 35.6112 21.0785 35.5198C20.8957 35.4284 20.6616 35.3827 20.3763 35.3827C19.9858 35.3827 19.6603 35.4727 19.3999 35.6527C19.1423 35.83 19.0135 36.0558 19.0135 36.33C19.0135 36.5737 19.1022 36.7662 19.2794 36.9075C19.4567 37.0488 19.7337 37.1665 20.1104 37.2607L21.0577 37.4933C21.6283 37.6318 22.0535 37.8437 22.3332 38.129C22.613 38.4115 22.7529 38.7758 22.7529 39.2217C22.7529 39.5874 22.6476 39.9142 22.4371 40.2023C22.2294 40.4903 21.9385 40.7175 21.5646 40.8837C21.1907 41.0499 20.7558 41.133 20.26 41.133C19.6091 41.133 19.0703 40.9917 18.6438 40.7092C18.2172 40.4266 17.9471 40.0139 17.8336 39.471L18.7642 39.2384C18.8529 39.5818 19.0205 39.8394 19.267 40.0112C19.5163 40.1829 19.8417 40.2688 20.2434 40.2688C20.7004 40.2688 21.0633 40.1718 21.3319 39.9779C21.6034 39.7812 21.7391 39.5458 21.7391 39.2716C21.7391 39.05 21.6616 38.8644 21.5064 38.7148C21.3513 38.5625 21.1131 38.4489 20.7918 38.3741L19.7282 38.1249C19.1437 37.9864 18.7144 37.7717 18.4402 37.4809C18.1687 37.1873 18.033 36.8202 18.033 36.3798C18.033 36.0197 18.1341 35.7012 18.3363 35.4242C18.5413 35.1472 18.8196 34.9298 19.1714 34.7719C19.526 34.614 19.9276 34.5351 20.3763 34.5351C21.0079 34.5351 21.5037 34.6736 21.8638 34.9506C22.2266 35.2276 22.4842 35.5932 22.6366 36.0474ZM28.7493 36.0474L27.8685 36.2967C27.8131 36.1499 27.7314 36.0073 27.6234 35.8688C27.5181 35.7275 27.3741 35.6112 27.1913 35.5198C27.0085 35.4284 26.7744 35.3827 26.4891 35.3827C26.0986 35.3827 25.7731 35.4727 25.5127 35.6527C25.2551 35.83 25.1263 36.0558 25.1263 36.33C25.1263 36.5737 25.215 36.7662 25.3922 36.9075C25.5695 37.0488 25.8465 37.1665 26.2232 37.2607L27.1705 37.4933C27.7411 37.6318 28.1663 37.8437 28.446 38.129C28.7258 38.4115 28.8657 38.7758 28.8657 39.2217C28.8657 39.5874 28.7604 39.9142 28.5499 40.2023C28.3422 40.4903 28.0513 40.7175 27.6774 40.8837C27.3035 41.0499 26.8686 41.133 26.3728 41.133C25.7219 41.133 25.1831 40.9917 24.7566 40.7092C24.33 40.4266 24.0599 40.0139 23.9464 39.471L24.877 39.2384C24.9657 39.5818 25.1333 39.8394 25.3798 40.0112C25.6291 40.1829 25.9545 40.2688 26.3562 40.2688C26.8132 40.2688 27.176 40.1718 27.4447 39.9779C27.7162 39.7812 27.8519 39.5458 27.8519 39.2716C27.8519 39.05 27.7743 38.8644 27.6192 38.7148C27.4641 38.5625 27.2259 38.4489 26.9046 38.3741L25.841 38.1249C25.2565 37.9864 24.8272 37.7717 24.553 37.4809C24.2815 37.1873 24.1458 36.8202 24.1458 36.3798C24.1458 36.0197 24.2469 35.7012 24.4491 35.4242C24.6541 35.1472 24.9324 34.9298 25.2842 34.7719C25.6388 34.614 26.0404 34.5351 26.4891 34.5351C27.1207 34.5351 27.6165 34.6736 27.9765 34.9506C28.3394 35.2276 28.597 35.5932 28.7493 36.0474ZM32.2197 41.1496C31.8153 41.1496 31.4483 41.0734 31.1186 40.9211C30.789 40.7659 30.5273 40.543 30.3334 40.2521C30.1395 39.9585 30.0425 39.604 30.0425 39.1885C30.0425 38.8229 30.1146 38.5265 30.2586 38.2994C30.4026 38.0695 30.5951 37.8894 30.8361 37.7592C31.0771 37.629 31.343 37.5321 31.6338 37.4684C31.9274 37.4019 32.2224 37.3493 32.5188 37.3105C32.9066 37.2607 33.221 37.2233 33.462 37.1983C33.7057 37.1706 33.883 37.1249 33.9938 37.0612C34.1073 36.9975 34.1641 36.8867 34.1641 36.7288V36.6956C34.1641 36.2857 34.0519 35.9671 33.8276 35.74C33.606 35.5129 33.2695 35.3993 32.818 35.3993C32.3498 35.3993 31.9828 35.5018 31.7169 35.7067C31.451 35.9117 31.2641 36.1305 31.156 36.3632L30.2253 36.0308C30.3915 35.643 30.6131 35.3411 30.8901 35.1251C31.1699 34.9062 31.4746 34.7539 31.8042 34.668C32.1366 34.5794 32.4634 34.5351 32.7847 34.5351C32.9897 34.5351 33.2251 34.56 33.491 34.6099C33.7597 34.657 34.0187 34.7553 34.268 34.9049C34.5201 35.0544 34.7292 35.2802 34.8954 35.5821C35.0616 35.884 35.1447 36.2884 35.1447 36.7953V41H34.1641V40.1358H34.1143C34.0478 40.2743 33.937 40.4225 33.7819 40.5804C33.6268 40.7382 33.4204 40.8726 33.1628 40.9834C32.9052 41.0942 32.5908 41.1496 32.2197 41.1496ZM32.3692 40.2688C32.757 40.2688 33.0839 40.1926 33.3498 40.0402C33.6185 39.8879 33.8207 39.6912 33.9564 39.4502C34.0949 39.2093 34.1641 38.9558 34.1641 38.6899V37.7925C34.1226 37.8423 34.0312 37.888 33.8899 37.9296C33.7514 37.9684 33.5908 38.003 33.4079 38.0335C33.2279 38.0612 33.052 38.0861 32.8803 38.1082C32.7113 38.1276 32.5742 38.1442 32.469 38.1581C32.2141 38.1913 31.9759 38.2453 31.7543 38.3201C31.5355 38.3922 31.3582 38.5016 31.2225 38.6484C31.0896 38.7924 31.0231 38.9891 31.0231 39.2384C31.0231 39.579 31.1491 39.8366 31.4012 40.0112C31.656 40.1829 31.9787 40.2688 32.3692 40.2688ZM39.5104 43.5261C39.0367 43.5261 38.6295 43.4652 38.2888 43.3433C37.9481 43.2242 37.6642 43.0663 37.4371 42.8697C37.2127 42.6758 37.0341 42.468 36.9011 42.2464L37.6822 41.698C37.7709 41.8143 37.883 41.9473 38.0188 42.0969C38.1545 42.2492 38.3401 42.3808 38.5755 42.4916C38.8137 42.6051 39.1253 42.6619 39.5104 42.6619C40.0256 42.6619 40.4507 42.5373 40.7859 42.288C41.121 42.0387 41.2886 41.6482 41.2886 41.1163V39.82H41.2055C41.1335 39.9364 41.031 40.0804 40.8981 40.2521C40.7679 40.4211 40.5795 40.5721 40.333 40.705C40.0893 40.8352 39.7596 40.9003 39.3442 40.9003C38.829 40.9003 38.3664 40.7784 37.9564 40.5347C37.5493 40.2909 37.2266 39.9364 36.9884 39.471C36.7529 39.0057 36.6352 38.4406 36.6352 37.7759C36.6352 37.1222 36.7502 36.5529 36.9801 36.0682C37.21 35.5807 37.5299 35.204 37.9398 34.9381C38.3498 34.6694 38.8234 34.5351 39.3608 34.5351C39.7763 34.5351 40.1059 34.6043 40.3496 34.7428C40.5961 34.8786 40.7845 35.0337 40.9147 35.2082C41.0476 35.3799 41.1501 35.5212 41.2221 35.632H41.3219V34.6182H42.2692V41.1828C42.2692 41.7312 42.1445 42.1772 41.8952 42.5207C41.6487 42.8669 41.3163 43.1203 40.8981 43.281C40.4826 43.4444 40.02 43.5261 39.5104 43.5261ZM39.4771 40.0195C39.8704 40.0195 40.2028 39.9294 40.4743 39.7494C40.7457 39.5694 40.9521 39.3104 41.0933 38.9724C41.2346 38.6345 41.3052 38.2301 41.3052 37.7592C41.3052 37.2994 41.236 36.8936 41.0975 36.5419C40.959 36.1901 40.754 35.9145 40.4826 35.7151C40.2111 35.5156 39.876 35.4159 39.4771 35.4159C39.0616 35.4159 38.7154 35.5212 38.4384 35.7317C38.1642 35.9422 37.9578 36.2247 37.8193 36.5793C37.6836 36.9338 37.6158 37.3271 37.6158 37.7592C37.6158 38.2024 37.685 38.5944 37.8235 38.935C37.9648 39.273 38.1725 39.5389 38.4467 39.7328C38.7237 39.9239 39.0672 40.0195 39.4771 40.0195ZM46.7398 41.133C46.1248 41.133 45.5944 40.9972 45.1485 40.7258C44.7053 40.4516 44.3632 40.0693 44.1222 39.579C43.884 39.086 43.7649 38.5126 43.7649 37.8589C43.7649 37.2053 43.884 36.6291 44.1222 36.1305C44.3632 35.6292 44.6984 35.2386 45.1277 34.9589C45.5598 34.6763 46.0639 34.5351 46.64 34.5351C46.9724 34.5351 47.3007 34.5905 47.6247 34.7013C47.9488 34.8121 48.2438 34.9921 48.5097 35.2414C48.7756 35.4879 48.9875 35.8148 49.1454 36.2219C49.3033 36.6291 49.3822 37.1305 49.3822 37.726V38.1415H44.4629V37.2939H48.3851C48.3851 36.9338 48.3131 36.6125 48.169 36.33C48.0278 36.0474 47.8256 35.8245 47.5624 35.661C47.302 35.4976 46.9946 35.4159 46.64 35.4159C46.2495 35.4159 45.9116 35.5129 45.6263 35.7067C45.3437 35.8979 45.1263 36.1472 44.974 36.4546C44.8216 36.7621 44.7454 37.0917 44.7454 37.4435V38.0085C44.7454 38.4905 44.8285 38.899 44.9947 39.2342C45.1637 39.5666 45.3977 39.82 45.6969 39.9945C45.996 40.1663 46.3437 40.2521 46.7398 40.2521C46.9974 40.2521 47.23 40.2161 47.4378 40.1441C47.6483 40.0693 47.8297 39.9585 47.9821 39.8117C48.1344 39.6621 48.2521 39.4766 48.3352 39.255L49.2825 39.5209C49.1828 39.8422 49.0152 40.1247 48.7798 40.3685C48.5443 40.6094 48.2535 40.7978 47.9073 40.9335C47.561 41.0665 47.1719 41.133 46.7398 41.133Z" fill="#717375"/>
<path d="M31.667 3.5C32.3924 3.49928 33.0931 3.78786 33.6221 4.30957C34.1514 4.83168 34.4674 5.54726 34.5 6.30859V16.0674C34.5007 16.8297 34.2156 17.5608 33.709 18.1074C33.2055 18.6506 32.5223 18.9702 31.8018 19.0059H27.5322L27.3818 19.1953L25 22.1953L22.6182 19.1953L22.4678 19.0059H18.333C17.6297 19.0057 16.9489 18.7344 16.4258 18.2402C15.9022 17.7456 15.5748 17.0633 15.5117 16.3271V16.3262L15.5 16.1914V6.43848L15.5127 6.1543C15.5736 5.49635 15.8478 4.87775 16.291 4.39941C16.7948 3.85578 17.4782 3.53545 18.1992 3.5H31.667ZM18.333 3.87598C17.6909 3.87511 17.0757 4.12698 16.6123 4.57617C16.149 5.02545 15.8718 5.63792 15.834 6.28613L15.833 6.30078V16.0664C15.8319 16.7157 16.0719 17.3439 16.5068 17.8213C16.9422 18.2989 17.5413 18.5901 18.1826 18.6299L18.1982 18.6309H22.625L24.6074 21.1367L25 21.6328L25.3926 21.1367L27.375 18.6309H31.667V18.6299C32.3091 18.6307 32.9243 18.379 33.3877 17.9297C33.8509 17.4805 34.1282 16.8688 34.166 16.2207L34.167 16.2061V6.43848C34.1678 5.78961 33.9278 5.1626 33.4932 4.68555C33.0578 4.20774 32.4588 3.91673 31.8174 3.87695L31.8018 3.87598H18.333Z" fill="#0A0A0A" stroke="#717375"/>
</svg>
