<svg width="41" height="43" viewBox="0 0 41 43" fill="none" xmlns="http://www.w3.org/2000/svg">
<path d="M20.8929 15.8929L27 22M15.4643 17.9286C16.4445 17.9286 17.4151 17.7355 18.3207 17.3604C19.2264 16.9853 20.0492 16.4355 20.7423 15.7423C21.4355 15.0492 21.9853 14.2264 22.3604 13.3207C22.7355 12.4151 22.9286 11.4445 22.9286 10.4643C22.9286 9.48406 22.7355 8.51344 22.3604 7.60783C21.9853 6.70222 21.4355 5.87936 20.7423 5.18624C20.0492 4.49312 19.2264 3.9433 18.3207 3.56818C17.4151 3.19307 16.4445 3 15.4643 3C13.4846 3 11.5861 3.78641 10.1862 5.18624C8.78641 6.58606 8 8.48463 8 10.4643C8 12.4439 8.78641 14.3425 10.1862 15.7423C11.5861 17.1422 13.4846 17.9286 15.4643 17.9286Z" stroke="#717375" stroke-width="2"/>
<path d="M1.81151 37.6733L1.79489 36.4601H1.99432L4.78636 33.6182H5.99957L3.02472 36.6263H2.94162L1.81151 37.6733ZM0.897443 40V31.4909H1.87798V40H0.897443ZM4.95256 40L2.45966 36.8423L3.15767 36.1609L6.19901 40H4.95256ZM8.24214 36.1609V40H7.2616V31.4909H8.24214V34.6153H8.32524C8.47481 34.2857 8.69917 34.024 8.99832 33.8301C9.30024 33.6334 9.70187 33.5351 10.2032 33.5351C10.6381 33.5351 11.019 33.6223 11.3458 33.7968C11.6726 33.9686 11.9261 34.2331 12.1061 34.5904C12.2889 34.945 12.3804 35.3964 12.3804 35.9449V40H11.3998V36.0114C11.3998 35.5045 11.2682 35.1125 11.0051 34.8355C10.7447 34.5558 10.3833 34.4159 9.92069 34.4159C9.59939 34.4159 9.31132 34.4838 9.05649 34.6195C8.80443 34.7552 8.605 34.9533 8.45819 35.2136C8.31416 35.474 8.24214 35.7898 8.24214 36.1609ZM16.7668 40.133C16.1907 40.133 15.6852 39.9958 15.2503 39.7216C14.8182 39.4474 14.4803 39.0638 14.2365 38.5707C13.9955 38.0777 13.8751 37.5016 13.8751 36.8423C13.8751 36.1776 13.9955 35.5973 14.2365 35.1015C14.4803 34.6056 14.8182 34.2206 15.2503 33.9464C15.6852 33.6722 16.1907 33.5351 16.7668 33.5351C17.343 33.5351 17.8471 33.6722 18.2792 33.9464C18.714 34.2206 19.052 34.6056 19.293 35.1015C19.5367 35.5973 19.6586 36.1776 19.6586 36.8423C19.6586 37.5016 19.5367 38.0777 19.293 38.5707C19.052 39.0638 18.714 39.4474 18.2792 39.7216C17.8471 39.9958 17.343 40.133 16.7668 40.133ZM16.7668 39.2521C17.2045 39.2521 17.5645 39.14 17.8471 38.9156C18.1296 38.6912 18.3387 38.3962 18.4745 38.0306C18.6102 37.665 18.678 37.2689 18.678 36.8423C18.678 36.4158 18.6102 36.0183 18.4745 35.6499C18.3387 35.2815 18.1296 34.9837 17.8471 34.7566C17.5645 34.5295 17.2045 34.4159 16.7668 34.4159C16.3292 34.4159 15.9691 34.5295 15.6866 34.7566C15.404 34.9837 15.1949 35.2815 15.0592 35.6499C14.9235 36.0183 14.8556 36.4158 14.8556 36.8423C14.8556 37.2689 14.9235 37.665 15.0592 38.0306C15.1949 38.3962 15.404 38.6912 15.6866 38.9156C15.9691 39.14 16.3292 39.2521 16.7668 39.2521ZM20.9725 40V39.2521L24.5956 34.5987V34.5322H21.0889V33.6182H25.8586V34.3993L22.3353 39.0195V39.0859H25.975V40H20.9725ZM28.4658 36.1609V40H27.4852V33.6182H28.4325V34.6153H28.5156C28.6652 34.2913 28.8923 34.0309 29.197 33.8342C29.5017 33.6348 29.895 33.5351 30.377 33.5351C30.8091 33.5351 31.1872 33.6237 31.5113 33.801C31.8353 33.9755 32.0874 34.2414 32.2674 34.5987C32.4475 34.9533 32.5375 35.402 32.5375 35.9449V40H31.557V36.0114C31.557 35.51 31.4268 35.1195 31.1664 34.8397C30.906 34.5572 30.5487 34.4159 30.0945 34.4159C29.7815 34.4159 29.5017 34.4838 29.2552 34.6195C29.0114 34.7552 28.8189 34.9533 28.6777 35.2136C28.5364 35.474 28.4658 35.7898 28.4658 36.1609ZM36.2073 40.1496C35.8029 40.1496 35.4358 40.0734 35.1062 39.9211C34.7766 39.7659 34.5149 39.543 34.321 39.2521C34.1271 38.9585 34.0301 38.604 34.0301 38.1885C34.0301 37.8229 34.1021 37.5265 34.2462 37.2994C34.3902 37.0695 34.5827 36.8894 34.8237 36.7592C35.0647 36.629 35.3306 36.5321 35.6214 36.4684C35.915 36.4019 36.21 36.3493 36.5064 36.3105C36.8942 36.2607 37.2086 36.2233 37.4496 36.1983C37.6933 36.1706 37.8706 36.1249 37.9814 36.0612C38.0949 35.9975 38.1517 35.8867 38.1517 35.7288V35.6956C38.1517 35.2857 38.0395 34.9671 37.8152 34.74C37.5936 34.5129 37.257 34.3993 36.8056 34.3993C36.3374 34.3993 35.9704 34.5018 35.7045 34.7067C35.4386 34.9117 35.2517 35.1305 35.1436 35.3632L34.2129 35.0308C34.3791 34.643 34.6007 34.3411 34.8777 34.1251C35.1575 33.9062 35.4622 33.7539 35.7918 33.668C36.1242 33.5794 36.451 33.5351 36.7723 33.5351C36.9773 33.5351 37.2127 33.56 37.4786 33.6099C37.7473 33.657 38.0063 33.7553 38.2556 33.9049C38.5077 34.0544 38.7168 34.2802 38.883 34.5821C39.0492 34.884 39.1323 35.2884 39.1323 35.7953V40H38.1517V39.1358H38.1019C38.0354 39.2743 37.9246 39.4225 37.7695 39.5804C37.6144 39.7382 37.408 39.8726 37.1504 39.9834C36.8928 40.0942 36.5784 40.1496 36.2073 40.1496ZM36.3568 39.2688C36.7446 39.2688 37.0715 39.1926 37.3374 39.0402C37.6061 38.8879 37.8083 38.6912 37.944 38.4502C38.0825 38.2093 38.1517 37.9558 38.1517 37.6899V36.7925C38.1102 36.8423 38.0188 36.888 37.8775 36.9296C37.739 36.9684 37.5784 37.003 37.3955 37.0335C37.2155 37.0612 37.0396 37.0861 36.8679 37.1082C36.6989 37.1276 36.5618 37.1442 36.4566 37.1581C36.2017 37.1913 35.9635 37.2453 35.7419 37.3201C35.5231 37.3922 35.3458 37.5016 35.2101 37.6484C35.0771 37.7924 35.0107 37.9891 35.0107 38.2384C35.0107 38.579 35.1367 38.8366 35.3888 39.0112C35.6436 39.1829 35.9663 39.2688 36.3568 39.2688Z" fill="#717375"/>
</svg>
