<svg width="42" height="47" viewBox="0 0 42 47" fill="none" xmlns="http://www.w3.org/2000/svg">
<path d="M12.5945 44V35.4182H13.6337V43.0781H17.6229V44H12.5945ZM19.0979 44V37.5636H20.0868V44H19.0979ZM19.6007 36.4909C19.408 36.4909 19.2418 36.4253 19.1021 36.294C18.9652 36.1627 18.8968 36.0048 18.8968 35.8205C18.8968 35.6361 18.9652 35.4782 19.1021 35.3469C19.2418 35.2156 19.408 35.15 19.6007 35.15C19.7935 35.15 19.9583 35.2156 20.0952 35.3469C20.2349 35.4782 20.3047 35.6361 20.3047 35.8205C20.3047 36.0048 20.2349 36.1627 20.0952 36.294C19.9583 36.4253 19.7935 36.4909 19.6007 36.4909ZM26.4572 39.0051L25.5688 39.2565C25.5129 39.1085 25.4305 38.9646 25.3216 38.8249C25.2154 38.6825 25.0702 38.5651 24.8858 38.4729C24.7014 38.3808 24.4654 38.3347 24.1776 38.3347C23.7837 38.3347 23.4555 38.4254 23.1929 38.607C22.9331 38.7858 22.8032 39.0135 22.8032 39.2901C22.8032 39.5359 22.8926 39.73 23.0714 39.8725C23.2502 40.015 23.5295 40.1337 23.9094 40.2287L24.8648 40.4634C25.4403 40.603 25.8691 40.8167 26.1513 41.1045C26.4334 41.3894 26.5745 41.7568 26.5745 42.2065C26.5745 42.5753 26.4683 42.9049 26.256 43.1955C26.0465 43.486 25.7532 43.7151 25.3761 43.8827C24.9989 44.0503 24.5603 44.1341 24.0603 44.1341C23.4038 44.1341 22.8605 43.9916 22.4303 43.7067C22 43.4217 21.7277 43.0055 21.6131 42.458L22.5518 42.2233C22.6412 42.5697 22.8102 42.8295 23.0588 43.0027C23.3102 43.1759 23.6385 43.2625 24.0435 43.2625C24.5045 43.2625 24.8704 43.1647 25.1414 42.9692C25.4152 42.7708 25.5521 42.5334 25.5521 42.2568C25.5521 42.0333 25.4738 41.8462 25.3174 41.6953C25.161 41.5417 24.9207 41.4271 24.5967 41.3517L23.5239 41.1003C22.9345 40.9606 22.5015 40.7441 22.2249 40.4508C21.9512 40.1547 21.8143 39.7845 21.8143 39.3403C21.8143 38.9772 21.9162 38.6559 22.1202 38.3766C22.3269 38.0972 22.6076 37.8779 22.9624 37.7187C23.32 37.5594 23.7251 37.4798 24.1776 37.4798C24.8146 37.4798 25.3146 37.6195 25.6778 37.8989C26.0437 38.1782 26.3035 38.547 26.4572 39.0051ZM30.8623 37.5636V38.4017H27.5268V37.5636H30.8623ZM28.4989 36.0216H29.4878V42.1562C29.4878 42.4356 29.5283 42.6451 29.6094 42.7848C29.6932 42.9217 29.7993 43.0139 29.9278 43.0614C30.0591 43.1061 30.1974 43.1284 30.3427 43.1284C30.4516 43.1284 30.541 43.1228 30.6108 43.1116C30.6807 43.0977 30.7366 43.0865 30.7785 43.0781L30.9796 43.9665C30.9126 43.9916 30.819 44.0168 30.6988 44.0419C30.5787 44.0698 30.4265 44.0838 30.2421 44.0838C29.9627 44.0838 29.689 44.0237 29.4208 43.9036C29.1554 43.7835 28.9347 43.6005 28.7587 43.3547C28.5855 43.1089 28.4989 42.7988 28.4989 42.4244V36.0216Z" fill="#717375"/>
<rect width="42" height="27" rx="9" fill="#00A8E8"/>
<path d="M27.0714 14.4286H22.4286V19.0714C22.4286 19.3177 22.3307 19.5539 22.1566 19.728C21.9825 19.9022 21.7463 20 21.5 20C21.2537 20 21.0175 19.9022 20.8434 19.728C20.6693 19.5539 20.5714 19.3177 20.5714 19.0714V14.4286H15.9286C15.6823 14.4286 15.4461 14.3307 15.272 14.1566C15.0978 13.9825 15 13.7463 15 13.5C15 13.2537 15.0978 13.0175 15.272 12.8434C15.4461 12.6693 15.6823 12.5714 15.9286 12.5714H20.5714V7.92857C20.5714 7.6823 20.6693 7.44611 20.8434 7.27197C21.0175 7.09783 21.2537 7 21.5 7C21.7463 7 21.9825 7.09783 22.1566 7.27197C22.3307 7.44611 22.4286 7.6823 22.4286 7.92857V12.5714H27.0714C27.3177 12.5714 27.5539 12.6693 27.728 12.8434C27.9022 13.0175 28 13.2537 28 13.5C28 13.7463 27.9022 13.9825 27.728 14.1566C27.5539 14.3307 27.3177 14.4286 27.0714 14.4286Z" fill="white"/>
</svg>
