<svg width="30" height="44" viewBox="0 0 30 44" fill="none" xmlns="http://www.w3.org/2000/svg">
<path d="M1.0304 41V32.4909H3.90554C4.57031 32.4909 5.11598 32.6045 5.54254 32.8316C5.96911 33.056 6.28487 33.3648 6.48984 33.7581C6.69482 34.1515 6.7973 34.5988 6.7973 35.1001C6.7973 35.6015 6.69482 36.0461 6.48984 36.4338C6.28487 36.8216 5.97049 37.1263 5.5467 37.3479C5.1229 37.5667 4.58139 37.6761 3.92216 37.6761H1.59545V36.7455H3.88892C4.34318 36.7455 4.70881 36.679 4.9858 36.546C5.26555 36.4131 5.46776 36.2247 5.5924 35.981C5.71982 35.7344 5.78352 35.4408 5.78352 35.1001C5.78352 34.7594 5.71982 34.4617 5.5924 34.2069C5.46499 33.952 5.2614 33.7554 4.98164 33.6169C4.70188 33.4756 4.3321 33.405 3.8723 33.405H2.0608V41H1.0304ZM5.03565 37.1776L7.12969 41H5.9331L3.8723 37.1776H5.03565ZM10.9885 41.133C10.3736 41.133 9.84314 40.9972 9.39719 40.7258C8.954 40.4516 8.61192 40.0693 8.37094 39.579C8.13273 39.086 8.01363 38.5126 8.01363 37.8589C8.01363 37.2053 8.13273 36.6291 8.37094 36.1305C8.61192 35.6292 8.94708 35.2386 9.37641 34.9589C9.80851 34.6763 10.3126 34.5351 10.8888 34.5351C11.2212 34.5351 11.5494 34.5905 11.8735 34.7013C12.1975 34.8121 12.4925 34.9921 12.7584 35.2414C13.0244 35.4879 13.2362 35.8148 13.3941 36.2219C13.552 36.6291 13.631 37.1305 13.631 37.726V38.1415H8.71164V37.2939H12.6338C12.6338 36.9338 12.5618 36.6125 12.4177 36.33C12.2765 36.0474 12.0743 35.8245 11.8111 35.661C11.5508 35.4976 11.2433 35.4159 10.8888 35.4159C10.4982 35.4159 10.1603 35.5129 9.87499 35.7067C9.59246 35.8979 9.37503 36.1472 9.22268 36.4546C9.07034 36.7621 8.99417 37.0917 8.99417 37.4435V38.0085C8.99417 38.4905 9.07726 38.899 9.24346 39.2342C9.41242 39.5666 9.64648 39.82 9.94562 39.9945C10.2448 40.1663 10.5924 40.2521 10.9885 40.2521C11.2461 40.2521 11.4788 40.2161 11.6865 40.1441C11.897 40.0693 12.0784 39.9585 12.2308 39.8117C12.3831 39.6621 12.5008 39.4766 12.5839 39.255L13.5312 39.5209C13.4315 39.8422 13.2639 40.1247 13.0285 40.3685C12.7931 40.6094 12.5022 40.7978 12.156 40.9335C11.8098 41.0665 11.4206 41.133 10.9885 41.133ZM17.7983 41.133C17.1833 41.133 16.6529 40.9972 16.207 40.7258C15.7638 40.4516 15.4217 40.0693 15.1807 39.579C14.9425 39.086 14.8234 38.5126 14.8234 37.8589C14.8234 37.2053 14.9425 36.6291 15.1807 36.1305C15.4217 35.6292 15.7568 35.2386 16.1862 34.9589C16.6183 34.6763 17.1224 34.5351 17.6985 34.5351C18.0309 34.5351 18.3592 34.5905 18.6832 34.7013C19.0073 34.8121 19.3023 34.9921 19.5682 35.2414C19.8341 35.4879 20.046 35.8148 20.2039 36.2219C20.3618 36.6291 20.4407 37.1305 20.4407 37.726V38.1415H15.5214V37.2939H19.4436C19.4436 36.9338 19.3715 36.6125 19.2275 36.33C19.0862 36.0474 18.884 35.8245 18.6209 35.661C18.3605 35.4976 18.0531 35.4159 17.6985 35.4159C17.308 35.4159 16.9701 35.5129 16.6848 35.7067C16.4022 35.8979 16.1848 36.1472 16.0324 36.4546C15.8801 36.7621 15.8039 37.0917 15.8039 37.4435V38.0085C15.8039 38.4905 15.887 38.899 16.0532 39.2342C16.2222 39.5666 16.4562 39.82 16.7554 39.9945C17.0545 40.1663 17.4022 40.2521 17.7983 40.2521C18.0559 40.2521 18.2885 40.2161 18.4963 40.1441C18.7068 40.0693 18.8882 39.9585 19.0405 39.8117C19.1929 39.6621 19.3106 39.4766 19.3937 39.255L20.341 39.5209C20.2413 39.8422 20.0737 40.1247 19.8383 40.3685C19.6028 40.6094 19.312 40.7978 18.9658 40.9335C18.6195 41.0665 18.2304 41.133 17.7983 41.133ZM22.9128 32.4909V41H21.9323V32.4909H22.9128ZM29.2292 36.0474L28.3484 36.2967C28.293 36.1499 28.2113 36.0073 28.1033 35.8688C27.998 35.7275 27.854 35.6112 27.6712 35.5198C27.4884 35.4284 27.2543 35.3827 26.969 35.3827C26.5784 35.3827 26.253 35.4727 25.9926 35.6527C25.735 35.83 25.6062 36.0558 25.6062 36.33C25.6062 36.5737 25.6948 36.7662 25.8721 36.9075C26.0494 37.0488 26.3264 37.1665 26.7031 37.2607L27.6504 37.4933C28.221 37.6318 28.6462 37.8437 28.9259 38.129C29.2057 38.4115 29.3456 38.7758 29.3456 39.2217C29.3456 39.5874 29.2403 39.9142 29.0298 40.2023C28.8221 40.4903 28.5312 40.7175 28.1573 40.8837C27.7833 41.0499 27.3485 41.133 26.8527 41.133C26.2017 41.133 25.663 40.9917 25.2364 40.7092C24.8099 40.4266 24.5398 40.0139 24.4262 39.471L25.3569 39.2384C25.4456 39.5818 25.6131 39.8394 25.8597 40.0112C26.1089 40.1829 26.4344 40.2688 26.836 40.2688C27.2931 40.2688 27.6559 40.1718 27.9246 39.9779C28.1961 39.7812 28.3318 39.5458 28.3318 39.2716C28.3318 39.05 28.2542 38.8644 28.0991 38.7148C27.944 38.5625 27.7058 38.4489 27.3845 38.3741L26.3208 38.1249C25.7364 37.9864 25.3071 37.7717 25.0328 37.4809C24.7614 37.1873 24.6257 36.8202 24.6257 36.3798C24.6257 36.0197 24.7268 35.7012 24.929 35.4242C25.1339 35.1472 25.4123 34.9298 25.7641 34.7719C26.1186 34.614 26.5203 34.5351 26.969 34.5351C27.6005 34.5351 28.0963 34.6736 28.4564 34.9506C28.8193 35.2276 29.0769 35.5932 29.2292 36.0474Z" fill="#717375"/>
<path fill-rule="evenodd" clip-rule="evenodd" d="M15 23C16.3132 23 17.6136 22.7413 18.8268 22.2388C20.0401 21.7362 21.1425 20.9997 22.0711 20.0711C22.9997 19.1425 23.7362 18.0401 24.2388 16.8268C24.7413 15.6136 25 14.3132 25 13C25 11.6868 24.7413 10.3864 24.2388 9.17317C23.7362 7.95991 22.9997 6.85752 22.0711 5.92893C21.1425 5.00035 20.0401 4.26375 18.8268 3.7612C17.6136 3.25866 16.3132 3 15 3C12.3478 3 9.8043 4.05357 7.92893 5.92893C6.05357 7.8043 5 10.3478 5 13C5 15.6522 6.05357 18.1957 7.92893 20.0711C9.8043 21.9464 12.3478 23 15 23ZM13.6478 8.54444L19.9189 12.0289C20.092 12.1251 20.2363 12.2659 20.3367 12.4367C20.4371 12.6074 20.4901 12.8019 20.4901 13C20.4901 13.1981 20.4371 13.3926 20.3367 13.5633C20.2363 13.7341 20.092 13.8749 19.9189 13.9711L13.6478 17.4556C13.4447 17.5684 13.2157 17.6263 12.9834 17.6234C12.7511 17.6205 12.5236 17.557 12.3234 17.4391C12.1232 17.3212 11.9573 17.153 11.8421 16.9513C11.7269 16.7495 11.6664 16.5212 11.6667 16.2889V9.71111C11.6664 9.4788 11.7269 9.25045 11.8421 9.04871C11.9573 8.84696 12.1232 8.67882 12.3234 8.56093C12.5236 8.44305 12.7511 8.37951 12.9834 8.37662C13.2157 8.37372 13.4447 8.43158 13.6478 8.54444Z" fill="#717375"/>
</svg>
