<svg width="21" height="21" viewBox="0 0 21 21" fill="none" xmlns="http://www.w3.org/2000/svg">
<path d="M16.7168 0.0500504C17.5761 0.049192 18.4024 0.390649 19.0235 1.00318C19.6446 1.61571 20.0124 2.45199 20.0502 3.33753V13.1174C20.051 14.0039 19.72 14.8564 19.1263 15.4971C18.5325 16.1378 17.7219 16.5172 16.8635 16.5562H12.8235L10.0502 20.05L7.27684 16.5562H3.38351C2.5503 16.5561 1.74734 16.2341 1.13283 15.6536C0.518325 15.0732 0.136828 14.2763 0.0635058 13.4201L0.0501725 13.2688V3.48884C0.0493404 2.60244 0.380326 1.74994 0.97407 1.10922C1.56781 0.468498 2.37845 0.0890518 3.23684 0.0500504H3.38351H16.7168ZM16.7168 1.42557H3.38351C2.87322 1.42462 2.38189 1.62492 2.01008 1.98548C1.63828 2.34603 1.41412 2.83957 1.38351 3.36504V13.1174C1.38259 13.6439 1.57675 14.1508 1.92625 14.5343C2.27574 14.9179 2.75414 15.1491 3.26351 15.1807H7.91684L10.0502 17.8767L12.1835 15.1807H16.7168C17.2271 15.1817 17.7185 14.9814 18.0903 14.6208C18.4621 14.2603 18.6862 13.7667 18.7168 13.2412V3.48884C18.7178 2.96241 18.5236 2.45554 18.1741 2.07197C17.8246 1.6884 17.3462 1.45715 16.8368 1.42557H16.7168Z" fill="#717375" stroke="#717375" stroke-width="0.1"/>
</svg>
