<svg width="24" height="24" viewBox="0 0 24 24" fill="none" xmlns="http://www.w3.org/2000/svg">
<path d="M20.5 16.3524V6.78011C20.5 5.5 19.6151 4.5 18.5 4.5H5.33333C4.5 4.5 3.5 5.5 3.5 6.78011V15.534C3.5 17 4.35335 17.7964 5.33333 17.7964H9.19298V19.3141H5.33333C3.49252 19.314 2 17.6217 2 15.534V6.78011C2 4.69241 3.49238 3 5.33333 3H18.6667C20.5076 3 22 4.69241 22 6.78011V16.3524C21.9999 17.8044 21.5 19.1909 19.7974 19.3141C18.2236 19.4281 16.075 19.3141 15.1579 19.3141L15 17.7964C15.9253 17.7964 17.962 17.7964 19.5 17.7964C20.187 17.7964 20.4999 17.3113 20.5 16.3524Z" fill="#00ADEF" stroke="#00ADEF" stroke-width="0.5" stroke-linejoin="round"/>
<path d="M8.84345 18.2712C9.06071 18.0523 9 17.8845 9.19298 17.7964C9.89361 18.6903 10.8312 19.8515 11.2907 20.2638C11.7518 20.6775 12.0641 20.8063 12.307 20.8063C12.5427 20.8063 12.8294 20.6845 13.2397 20.2809C13.6524 19.875 14.3871 18.6901 15 17.7964C15.7934 17.7964 15.252 18.044 15.4813 18.2463C15.7105 18.4488 16.1784 18.7399 16 19C15.385 19.8967 14.4973 21.0107 14 21.5C13.5002 21.9911 12.9046 22.3507 12.307 22.3507C11.7166 22.3507 11.0366 21.9814 10.5 21.5C9.96182 21.017 9 19.5 8 19C7.80697 18.7536 8.62623 18.4902 8.84345 18.2712Z" fill="#00ADEF" stroke="#00ADEF" stroke-width="0.5" stroke-linejoin="round"/>
</svg>
