<svg width="21" height="22" viewBox="0 0 21 22" fill="none" xmlns="http://www.w3.org/2000/svg">
<path d="M17.1667 0.500002C18.0259 0.499143 18.8522 0.840601 19.4733 1.45313C20.0944 2.06566 20.4622 2.90194 20.5 3.78748V13.5674C20.5008 14.4538 20.1698 15.3063 19.5761 15.947C18.9824 16.5877 18.1717 16.9672 17.3133 17.0062H13.2733L10.5 20.5L7.72667 17.0062H3.83333C3.00013 17.0061 2.19717 16.6841 1.58266 16.1036C0.968154 15.5231 0.586657 14.7262 0.513335 13.87L0.500002 13.7187V3.93879C0.499169 3.05239 0.830155 2.19989 1.4239 1.55917C2.01764 0.918449 2.82828 0.539003 3.68667 0.500002H3.83333H17.1667ZM17.1667 1.87552H3.83333C3.32305 1.87457 2.83172 2.07487 2.45991 2.43543C2.08811 2.79598 1.86395 3.28952 1.83333 3.81499V13.5674C1.83242 14.0938 2.02658 14.6007 2.37608 14.9843C2.72557 15.3678 3.20397 15.5991 3.71333 15.6307H8.36667L10.5 18.3267L12.6333 15.6307H17.1667C17.6769 15.6316 18.1683 15.4313 18.5401 15.0708C18.9119 14.7102 19.136 14.2167 19.1667 13.6912V3.93879C19.1676 3.41237 18.9734 2.90549 18.6239 2.52192C18.2744 2.13835 17.796 1.9071 17.2867 1.87552H17.1667Z" fill="#717375" stroke="#717375"/>
</svg>
