<svg width="24" height="24" viewBox="0 0 24 24" fill="none" xmlns="http://www.w3.org/2000/svg">
<path d="M8.5127 8.92285C8.53791 8.71957 8.60029 8.52185 8.69824 8.34082C8.82909 8.09911 9.01919 7.89353 9.25098 7.74609C9.48282 7.59866 9.74901 7.51464 10.0234 7.50195C10.2979 7.4893 10.5702 7.54906 10.8145 7.6748L16.7246 10.7158C16.9599 10.8372 17.1569 11.0224 17.293 11.249C17.429 11.4757 17.5 11.7358 17.5 12C17.5 12.2642 17.429 12.5243 17.293 12.751C17.1569 12.9776 16.9608 13.1628 16.7256 13.2842L10.8145 16.3252C10.5702 16.4509 10.2979 16.5107 10.0234 16.498C9.74901 16.4854 9.48282 16.4013 9.25098 16.2539C9.01919 16.1065 8.82909 15.9009 8.69824 15.6592C8.60029 15.4781 8.53791 15.2804 8.5127 15.0771L8.5 14.8721V9.12793L8.5127 8.92285ZM9.5 14.8721C9.49992 14.9816 9.52712 15.0894 9.57812 15.1836C9.62909 15.2776 9.70212 15.3555 9.78809 15.4102C9.87388 15.4646 9.97076 15.4944 10.0693 15.499C10.1679 15.5036 10.2667 15.4826 10.3564 15.4365L16.2666 12.3955L16.3154 12.3652C16.3625 12.3319 16.4041 12.2888 16.4355 12.2363C16.4775 12.1664 16.5 12.0844 16.5 12C16.5 11.9156 16.4775 11.8336 16.4355 11.7637C16.3936 11.6938 16.3341 11.6393 16.2666 11.6045L10.3574 8.56348C10.2677 8.5174 10.1679 8.49642 10.0693 8.50098C9.97076 8.50555 9.87388 8.53538 9.78809 8.58984C9.70212 8.64453 9.62909 8.72236 9.57812 8.81641C9.52712 8.91063 9.49992 9.01838 9.5 9.12793V14.8721Z" fill="#00ADEF"/>
<path d="M20.5 12C20.5 7.30558 16.6944 3.5 12 3.5C7.30558 3.5 3.5 7.30558 3.5 12C3.5 16.6944 7.30558 20.5 12 20.5C16.6944 20.5 20.5 16.6944 20.5 12ZM22 12C22 17.2467 17.2467 22 12 22C6.75329 22 2 17.2467 2 12C2 6.75329 6.75329 2 12 2C17.2467 2 22 6.75329 22 12Z" fill="#00ADEF"/>
</svg>
