<svg width="20" height="20" viewBox="0 0 20 20" fill="none" xmlns="http://www.w3.org/2000/svg">
<mask id="path-1-inside-1_13_322" fill="white">
<path d="M16.6667 1.61469e-06C17.5259 -0.000856822 18.3522 0.340601 18.9733 0.953129C19.5944 1.56566 19.9622 2.40194 20 3.28748V13.0674C20.0008 13.9538 19.6698 14.8063 19.0761 15.447C18.4824 16.0877 17.6717 16.4672 16.8133 16.5062H12.7733L10 20L7.22667 16.5062H3.33333C2.50013 16.5061 1.69717 16.1841 1.08266 15.6036C0.468154 15.0231 0.086657 14.2262 0.0133349 13.37L1.56517e-06 13.2187V3.43879C-0.000830546 2.55239 0.330155 1.69989 0.923899 1.05917C1.51764 0.418449 2.32828 0.039003 3.18667 1.61469e-06H3.33333H16.6667ZM16.6667 1.37552H3.33333C2.82305 1.37457 2.33172 1.57487 1.95991 1.93543C1.58811 2.29598 1.36395 2.78952 1.33333 3.31499V13.0674C1.33242 13.5938 1.52658 14.1007 1.87608 14.4843C2.22557 14.8678 2.70397 15.0991 3.21333 15.1307H7.86667L10 17.8267L12.1333 15.1307H16.6667C17.1769 15.1316 17.6683 14.9313 18.0401 14.5708C18.4119 14.2102 18.636 13.7167 18.6667 13.1912V3.43879C18.6676 2.91237 18.4734 2.40549 18.1239 2.02192C17.7744 1.63835 17.296 1.4071 16.7867 1.37552H16.6667Z"/>
</mask>
<path d="M16.6667 1.61469e-06C17.5259 -0.000856822 18.3522 0.340601 18.9733 0.953129C19.5944 1.56566 19.9622 2.40194 20 3.28748V13.0674C20.0008 13.9538 19.6698 14.8063 19.0761 15.447C18.4824 16.0877 17.6717 16.4672 16.8133 16.5062H12.7733L10 20L7.22667 16.5062H3.33333C2.50013 16.5061 1.69717 16.1841 1.08266 15.6036C0.468154 15.0231 0.086657 14.2262 0.0133349 13.37L1.56517e-06 13.2187V3.43879C-0.000830546 2.55239 0.330155 1.69989 0.923899 1.05917C1.51764 0.418449 2.32828 0.039003 3.18667 1.61469e-06H3.33333H16.6667ZM16.6667 1.37552H3.33333C2.82305 1.37457 2.33172 1.57487 1.95991 1.93543C1.58811 2.29598 1.36395 2.78952 1.33333 3.31499V13.0674C1.33242 13.5938 1.52658 14.1007 1.87608 14.4843C2.22557 14.8678 2.70397 15.0991 3.21333 15.1307H7.86667L10 17.8267L12.1333 15.1307H16.6667C17.1769 15.1316 17.6683 14.9313 18.0401 14.5708C18.4119 14.2102 18.636 13.7167 18.6667 13.1912V3.43879C18.6676 2.91237 18.4734 2.40549 18.1239 2.02192C17.7744 1.63835 17.296 1.4071 16.7867 1.37552H16.6667Z" fill="#0A0A0A"/>
<path d="M16.6667 1.61469e-06V1.5L16.6682 1.5L16.6667 1.61469e-06ZM20 3.28748H21.5V3.25548L21.4986 3.22351L20 3.28748ZM20 13.0674H18.5V13.0688L20 13.0674ZM16.8133 16.5062V18.0062H16.8474L16.8814 18.0046L16.8133 16.5062ZM12.7733 16.5062V15.0062H12.0489L11.5985 15.5736L12.7733 16.5062ZM10 20L8.82514 20.9326L10 22.4127L11.1749 20.9326L10 20ZM7.22667 16.5062L8.40152 15.5736L7.95112 15.0062H7.22667V16.5062ZM3.33333 16.5062L3.33315 18.0062H3.33333V16.5062ZM0.0133349 13.37L1.50787 13.242L1.50754 13.2383L0.0133349 13.37ZM1.56517e-06 13.2187H-1.5V13.2847L-1.49421 13.3504L1.56517e-06 13.2187ZM1.56517e-06 3.43879H1.5L1.5 3.43738L1.56517e-06 3.43879ZM3.18667 1.61469e-06V-1.5H3.15261L3.11858 -1.49845L3.18667 1.61469e-06ZM3.33333 1.37552L3.33055 2.87552H3.33333V1.37552ZM1.33333 3.31499L-0.164126 3.22775L-0.166665 3.27133V3.31499H1.33333ZM1.33333 13.0674L2.83333 13.07V13.0674H1.33333ZM3.21333 15.1307L3.1205 16.6278L3.16687 16.6307H3.21333V15.1307ZM7.86667 15.1307L9.04295 14.1999L8.59253 13.6307H7.86667V15.1307ZM10 17.8267L8.82372 18.7575L10 20.244L11.1763 18.7575L10 17.8267ZM12.1333 15.1307V13.6307H11.4075L10.9571 14.1999L12.1333 15.1307ZM16.6667 15.1307L16.6695 13.6307H16.6667V15.1307ZM18.6667 13.1912L20.1641 13.2784L20.1667 13.2349V13.1912H18.6667ZM18.6667 3.43879L17.1667 3.43617V3.43879H18.6667ZM16.7867 1.37552L16.8795 -0.121607L16.8331 -0.124483H16.7867V1.37552ZM16.6667 1.61469e-06L16.6682 1.5C17.126 1.49954 17.5752 1.68104 17.92 2.02111L18.9733 0.953129L20.0266 -0.114851C19.1293 -0.999836 17.9258 -1.50126 16.6652 -1.5L16.6667 1.61469e-06ZM18.9733 0.953129L17.92 2.02111C18.2663 2.36259 18.4794 2.83808 18.5014 3.35146L20 3.28748L21.4986 3.22351C21.4449 1.9658 20.9225 0.768728 20.0266 -0.114851L18.9733 0.953129ZM20 3.28748H18.5V13.0674H20H21.5V3.28748H20ZM20 13.0674L18.5 13.0688C18.5005 13.5828 18.3081 14.0689 17.9759 14.4275L19.0761 15.447L20.1763 16.4666C21.0316 15.5437 21.5012 14.3248 21.5 13.066L20 13.0674ZM19.0761 15.447L17.9759 14.4275C17.645 14.7846 17.2028 14.9869 16.7452 15.0077L16.8133 16.5062L16.8814 18.0046C18.1406 17.9474 19.3198 17.3909 20.1763 16.4666L19.0761 15.447ZM16.8133 16.5062V15.0062H12.7733V16.5062V18.0062H16.8133V16.5062ZM12.7733 16.5062L11.5985 15.5736L8.82514 19.0674L10 20L11.1749 20.9326L13.9482 17.4388L12.7733 16.5062ZM10 20L11.1749 19.0674L8.40152 15.5736L7.22667 16.5062L6.05181 17.4388L8.82514 20.9326L10 20ZM7.22667 16.5062V15.0062H3.33333V16.5062V18.0062H7.22667V16.5062ZM3.33333 16.5062L3.33352 15.0062C2.88946 15.0061 2.45331 14.8349 2.11271 14.5132L1.08266 15.6036L0.0526196 16.694C0.941029 17.5332 2.1108 18.006 3.33315 18.0062L3.33333 16.5062ZM1.08266 15.6036L2.11271 14.5132C1.77079 14.1902 1.55034 13.738 1.50787 13.242L0.0133349 13.37L-1.4812 13.498C-1.37703 14.7145 -0.834486 15.856 0.0526196 16.694L1.08266 15.6036ZM0.0133349 13.37L1.50754 13.2383L1.49421 13.087L1.56517e-06 13.2187L-1.49421 13.3504L-1.48087 13.5017L0.0133349 13.37ZM1.56517e-06 13.2187H1.5V3.43879H1.56517e-06H-1.5V13.2187H1.56517e-06ZM1.56517e-06 3.43879L1.5 3.43738C1.49952 2.92336 1.69188 2.43726 2.02413 2.07873L0.923899 1.05917L-0.176327 0.0396086C-1.03157 0.962519 -1.50118 2.18141 -1.5 3.4402L1.56517e-06 3.43879ZM0.923899 1.05917L2.02413 2.07873C2.35504 1.72163 2.7972 1.51924 3.25475 1.49846L3.18667 1.61469e-06L3.11858 -1.49845C1.85936 -1.44124 0.680244 -0.884733 -0.176327 0.0396086L0.923899 1.05917ZM3.18667 1.61469e-06V1.5H3.33333V1.61469e-06V-1.5H3.18667V1.61469e-06ZM3.33333 1.61469e-06V1.5H16.6667V1.61469e-06V-1.5H3.33333V1.61469e-06ZM16.6667 1.37552V-0.124483H3.33333V1.37552V2.87552H16.6667V1.37552ZM3.33333 1.37552L3.33612 -0.12448C2.42854 -0.126167 1.56334 0.230531 0.91567 0.858601L1.95991 1.93543L3.00415 3.01226C3.1001 2.91922 3.21756 2.8753 3.33055 2.87551L3.33333 1.37552ZM1.95991 1.93543L0.91567 0.858601C0.269387 1.48533 -0.112058 2.33408 -0.164126 3.22775L1.33333 3.31499L2.8308 3.40224C2.83996 3.24496 2.90682 3.10664 3.00415 3.01226L1.95991 1.93543ZM1.33333 3.31499H-0.166665V13.0674H1.33333H2.83333V3.31499H1.33333ZM1.33333 13.0674L-0.166663 13.0648C-0.168226 13.9598 0.161475 14.8296 0.767316 15.4945L1.87608 14.4843L2.98484 13.474C2.89168 13.3718 2.83306 13.2278 2.83333 13.07L1.33333 13.0674ZM1.87608 14.4843L0.767316 15.4945C1.37441 16.1608 2.21486 16.5716 3.1205 16.6278L3.21333 15.1307L3.30617 13.6335C3.19308 13.6265 3.07674 13.5749 2.98484 13.474L1.87608 14.4843ZM3.21333 15.1307V16.6307H7.86667V15.1307V13.6307H3.21333V15.1307ZM7.86667 15.1307L6.69038 16.0615L8.82372 18.7575L10 17.8267L11.1763 16.8959L9.04295 14.1999L7.86667 15.1307ZM10 17.8267L11.1763 18.7575L13.3096 16.0615L12.1333 15.1307L10.9571 14.1999L8.82372 16.8959L10 17.8267ZM12.1333 15.1307V16.6307H16.6667V15.1307V13.6307H12.1333V15.1307ZM16.6667 15.1307L16.6639 16.6307C17.5715 16.6324 18.4367 16.2757 19.0843 15.6476L18.0401 14.5708L16.9958 13.4939C16.8999 13.587 16.7824 13.6309 16.6695 13.6307L16.6667 15.1307ZM18.0401 14.5708L19.0843 15.6476C19.7306 15.0209 20.1121 14.1721 20.1641 13.2784L18.6667 13.1912L17.1692 13.104C17.16 13.2612 17.0932 13.3995 16.9958 13.4939L18.0401 14.5708ZM18.6667 13.1912H20.1667V3.43879H18.6667H17.1667V13.1912H18.6667ZM18.6667 3.43879L20.1667 3.44141C20.1682 2.54635 19.8385 1.67655 19.2327 1.01164L18.1239 2.02192L17.0152 3.03219C17.1083 3.13443 17.1669 3.27838 17.1667 3.43617L18.6667 3.43879ZM18.1239 2.02192L19.2327 1.01164C18.6256 0.345365 17.7851 -0.0654502 16.8795 -0.121607L16.7867 1.37552L16.6938 2.87264C16.8069 2.87965 16.9233 2.93133 17.0152 3.03219L18.1239 2.02192ZM16.7867 1.37552V-0.124483H16.6667V1.37552V2.87552H16.7867V1.37552Z" fill="#717375" mask="url(#path-1-inside-1_13_322)"/>
</svg>
