<svg width="17" height="24" viewBox="0 0 17 24" fill="none" xmlns="http://www.w3.org/2000/svg">
<path d="M8.12424 14.8791C7.59901 14.8801 7.09557 15.0929 6.7241 15.471C6.35262 15.8491 6.14336 16.3616 6.14212 16.8964V21.022C6.14212 21.5573 6.35095 22.0706 6.72267 22.4491C7.09439 22.8276 7.59854 23.0402 8.12424 23.0402C8.64993 23.0402 9.15409 22.8276 9.5258 22.4491C9.89752 22.0706 10.1064 21.5573 10.1064 21.022V20.9808V20.9827V16.8973C10.1054 16.3627 9.89647 15.8502 9.52537 15.472C9.15427 15.0938 8.65118 14.8806 8.12612 14.8791H8.12424Z" fill="#00A8E8"/>
<path d="M15.3064 2.52137H11.4918C11.0296 1.04842 9.69694 0 8.12329 0C6.54965 0 5.21788 1.04842 4.76235 2.4955L4.75576 2.52137H0.991059C0.728214 2.52137 0.476134 2.62769 0.290274 2.81694C0.104415 3.00619 0 3.26286 0 3.5305C0 3.79814 0.104415 4.05481 0.290274 4.24406C0.476134 4.43331 0.728214 4.53962 0.991059 4.53962H4.80565C5.05788 5.40117 5.60565 6.1065 6.32565 6.54829L6.34071 6.55692C3.63859 7.38779 1.70165 9.89192 1.68471 12.8599V18.1575C1.68863 18.5976 1.862 19.0186 2.16754 19.3299C2.47308 19.6411 2.88639 19.8179 3.31859 19.8222H4.65694V16.9472C4.65694 15.9973 5.0275 15.0864 5.6871 14.4148C6.3467 13.7432 7.2413 13.3659 8.17412 13.3659C9.10693 13.3659 10.0015 13.7432 10.6611 14.4148C11.3207 15.0864 11.6913 15.9973 11.6913 16.9472V19.8222H13.0287C13.4615 19.8192 13.8757 19.6428 14.1818 19.3313C14.4879 19.0198 14.6613 18.5982 14.6645 18.1575V12.9116C14.6639 11.497 14.2148 10.1203 13.384 8.98637C12.5533 7.85247 11.3852 7.02191 10.0536 6.61825L10.0085 6.60675C10.7446 6.15984 11.2901 5.44886 11.5379 4.61342L11.5445 4.5885H15.3591C15.6217 4.58774 15.8733 4.48118 16.059 4.2921C16.2447 4.10301 16.3494 3.84678 16.3501 3.57937C16.3397 3.30209 16.2269 3.03902 16.0342 2.84271C15.8416 2.64641 15.5834 2.53131 15.3111 2.52042H15.3092L15.3064 2.52137ZM8.12329 5.59667C7.73127 5.59667 7.34805 5.4783 7.02209 5.25653C6.69613 5.03476 6.44208 4.71955 6.29206 4.35077C6.14203 3.98198 6.10278 3.57618 6.17926 3.18468C6.25574 2.79317 6.44452 2.43356 6.72172 2.1513C6.99893 1.86904 7.35211 1.67682 7.7366 1.59895C8.12109 1.52107 8.51963 1.56104 8.88182 1.7138C9.244 1.86655 9.55357 2.12524 9.77136 2.45714C9.98916 2.78904 10.1054 3.17924 10.1054 3.57842L10.1064 3.63592C10.1064 4.71883 9.24424 5.59667 8.18071 5.59667L8.12141 5.59571H8.12424L8.12329 5.59667Z" fill="#00A8E8"/>
</svg>
