<svg width="22" height="20" viewBox="0 0 22 20" fill="none" xmlns="http://www.w3.org/2000/svg">
<path d="M19.112 1.286L19.5109 0.650909L19.5107 0.650755L19.112 1.286ZM20.214 2.388L20.8492 1.9893L20.8491 1.98905L20.214 2.388ZM20.213 11.112L19.5781 10.7128L19.5779 10.7131L20.213 11.112ZM19.113 12.213L19.5116 12.8483L19.5124 12.8478L19.113 12.213ZM2.388 12.213L2.78724 11.5781L2.7865 11.5776L2.388 12.213ZM1.286 11.113L0.650333 11.511L0.651354 11.5127L1.286 11.113ZM1.286 2.388L0.650909 1.98905L0.650755 1.9893L1.286 2.388ZM2.388 1.286L1.9893 0.650755L1.98905 0.650909L2.388 1.286ZM5.75 9C5.33579 9 5 9.33579 5 9.75C5 10.1642 5.33579 10.5 5.75 10.5V9.75V9ZM15.75 10.5C16.1642 10.5 16.5 10.1642 16.5 9.75C16.5 9.33579 16.1642 9 15.75 9V9.75V10.5ZM4.75 18C4.33579 18 4 18.3358 4 18.75C4 19.1642 4.33579 19.5 4.75 19.5V18.75V18ZM7.5 15.75C7.5 15.3358 7.16421 15 6.75 15C6.33579 15 6 15.3358 6 15.75H6.75H7.5ZM16.75 19.5C17.1642 19.5 17.5 19.1642 17.5 18.75C17.5 18.3358 17.1642 18 16.75 18V18.75V19.5ZM15.5 15.75C15.5 15.3358 15.1642 15 14.75 15C14.3358 15 14 15.3358 14 15.75H14.75H15.5ZM11.5 15.75C11.5 15.3358 11.1642 15 10.75 15C10.3358 15 10 15.3358 10 15.75H10.75H11.5ZM10 18.75C10 19.1642 10.3358 19.5 10.75 19.5C11.1642 19.5 11.5 19.1642 11.5 18.75H10.75H10ZM16.875 5.5C17.2892 5.5 17.625 5.16421 17.625 4.75C17.625 4.33579 17.2892 4 16.875 4V4.75V5.5ZM16.75 4C16.3358 4 16 4.33579 16 4.75C16 5.16421 16.3358 5.5 16.75 5.5V4.75V4ZM16.5732 4.57322L17.1035 5.10356V5.10356L16.5732 4.57322ZM16.9268 4.57322L16.3964 5.10356V5.10356L16.9268 4.57322ZM14.75 0.75V1.5C15.9343 1.5 16.7687 1.50082 17.4155 1.5635C18.0508 1.62506 18.4257 1.74072 18.7133 1.92125L19.112 1.286L19.5107 0.650755C18.9443 0.295283 18.3077 0.142936 17.5602 0.0704971C16.8243 -0.000822246 15.9047 0 14.75 0V0.75ZM19.112 1.286L18.7131 1.92109C19.0631 2.14097 19.359 2.43692 19.5789 2.78695L20.214 2.388L20.8491 1.98905C20.5093 1.4481 20.0519 0.990719 19.5109 0.650909L19.112 1.286ZM20.214 2.388L19.5788 2.7867C19.7593 3.07439 19.8749 3.44906 19.9365 4.08411C19.9992 4.73077 20 5.56517 20 6.75H20.75H21.5C21.5 5.59483 21.5008 4.67523 21.4295 3.93939C21.3571 3.19194 21.2047 2.55561 20.8492 1.9893L20.214 2.388ZM20.75 6.75H20C20 7.93486 19.9992 8.76917 19.9364 9.41576C19.8747 10.0507 19.7589 10.4252 19.5781 10.7128L20.213 11.112L20.8479 11.5112C21.2041 10.9448 21.3568 10.3083 21.4294 9.56074C21.5008 8.82483 21.5 7.90514 21.5 6.75H20.75ZM20.213 11.112L19.5779 10.7131C19.3583 11.0627 19.0629 11.3584 18.7136 11.5782L19.113 12.213L19.5124 12.8478C20.0524 12.508 20.5089 12.0511 20.8481 11.5109L20.213 11.112ZM19.113 12.213L18.7144 11.5777C18.4256 11.7589 18.0499 11.8747 17.4148 11.9364C16.7679 11.9992 15.9338 12 14.75 12V12.75V13.5C15.9042 13.5 16.8236 13.5008 17.5597 13.4294C18.3076 13.3568 18.9444 13.2041 19.5116 12.8483L19.113 12.213ZM14.75 12.75V12H6.75V12.75V13.5H14.75V12.75ZM6.75 12.75V12C5.56565 12 4.73132 11.9992 4.0846 11.9364C3.44949 11.8747 3.07478 11.7589 2.78724 11.5781L2.388 12.213L1.98877 12.8479C2.55522 13.2041 3.19201 13.3568 3.93965 13.4294C4.67568 13.5008 5.59535 13.5 6.75 13.5V12.75ZM2.388 12.213L2.7865 11.5776C2.43665 11.3582 2.14071 11.0628 1.92065 10.7133L1.286 11.113L0.651354 11.5127C0.991451 12.0527 1.44881 12.5093 1.9895 12.8484L2.388 12.213ZM1.286 11.113L1.92166 10.715C1.74072 10.426 1.62506 10.0502 1.5635 9.41492C1.50082 8.76798 1.5 7.93381 1.5 6.75H0.75H0C0 7.90419 -0.00082165 8.82352 0.0704958 9.55958C0.142941 10.3073 0.295276 10.944 0.650335 11.511L1.286 11.113ZM0.75 6.75H1.5C1.5 5.56619 1.50082 4.73177 1.5635 4.08483C1.62507 3.44937 1.74075 3.07429 1.92125 2.7867L1.286 2.388L0.650755 1.9893C0.295252 2.55571 0.142926 3.19263 0.0704958 3.94017C-0.000821769 4.67623 0 5.59581 0 6.75H0.75ZM1.286 2.388L1.92109 2.78695C2.14097 2.43692 2.43692 2.14097 2.78695 1.92109L2.388 1.286L1.98905 0.650909C1.4481 0.990719 0.990719 1.4481 0.650909 1.98905L1.286 2.388ZM2.388 1.286L2.7867 1.92125C3.07439 1.74069 3.44906 1.62505 4.08411 1.5635C4.73077 1.50082 5.56517 1.5 6.75 1.5V0.75V0C5.59483 0 4.67523 -0.000822723 3.93939 0.0704983C3.19194 0.142946 2.55561 0.295315 1.9893 0.650755L2.388 1.286ZM6.75 0.75V1.5H14.75V0.75V0H6.75V0.75ZM5.75 9.75V10.5H15.75V9.75V9H5.75V9.75ZM4.75 18.75V19.5C5.47935 19.5 6.17882 19.2103 6.69454 18.6945L6.16421 18.1642L5.63388 17.6339C5.39946 17.8683 5.08152 18 4.75 18V18.75ZM6.16421 18.1642L6.69454 18.6945C7.21027 18.1788 7.5 17.4793 7.5 16.75H6.75H6C6 17.0815 5.8683 17.3995 5.63388 17.6339L6.16421 18.1642ZM6.75 16.75H7.5V15.75H6.75H6V16.75H6.75ZM16.75 18.75V18C16.4185 18 16.1005 17.8683 15.8661 17.6339L15.3358 18.1642L14.8055 18.6945C15.3212 19.2103 16.0207 19.5 16.75 19.5V18.75ZM15.3358 18.1642L15.8661 17.6339C15.6317 17.3995 15.5 17.0815 15.5 16.75H14.75H14C14 17.4793 14.2897 18.1788 14.8055 18.6945L15.3358 18.1642ZM14.75 16.75H15.5V15.75H14.75H14V16.75H14.75ZM10.75 15.75H10V18.75H10.75H11.5V15.75H10.75ZM16.875 4.75V4H16.75V4.75V5.5H16.875V4.75ZM17 4.75H16.25C16.25 4.6174 16.3027 4.49022 16.3964 4.39644L16.9268 4.92678L17.4571 5.45711C17.6446 5.26957 17.75 5.01521 17.75 4.75H17ZM16.9268 4.92678L16.3964 4.39644C16.4902 4.30268 16.6174 4.25 16.75 4.25V5V5.75C17.0152 5.75 17.2696 5.64464 17.4571 5.45711L16.9268 4.92678ZM16.75 5V4.25C16.8826 4.25 17.0098 4.30268 17.1035 4.39644L16.5732 4.92678L16.0429 5.45711C16.2304 5.64464 16.4848 5.75 16.75 5.75V5ZM16.5732 4.92678L17.1035 4.39644C17.1973 4.49022 17.25 4.6174 17.25 4.75H16.5H15.75C15.75 5.01521 15.8554 5.26957 16.0429 5.45711L16.5732 4.92678ZM16.5 4.75H17.25C17.25 4.8826 17.1973 5.00978 17.1035 5.10356L16.5732 4.57322L16.0429 4.04289C15.8554 4.23043 15.75 4.48479 15.75 4.75H16.5ZM16.5732 4.57322L17.1035 5.10356C17.0098 5.19732 16.8826 5.25 16.75 5.25V4.5V3.75C16.4848 3.75 16.2304 3.85536 16.0429 4.04289L16.5732 4.57322ZM16.75 4.5V5.25C16.6174 5.25 16.4902 5.19732 16.3964 5.10356L16.9268 4.57322L17.4571 4.04289C17.2696 3.85536 17.0152 3.75 16.75 3.75V4.5ZM16.9268 4.57322L16.3964 5.10356C16.3027 5.00978 16.25 4.8826 16.25 4.75H17H17.75C17.75 4.48479 17.6446 4.23043 17.4571 4.04289L16.9268 4.57322Z" fill="#00A8E8"/>
</svg>
