<svg width="42" height="27" viewBox="0 0 42 27" fill="none" xmlns="http://www.w3.org/2000/svg">
<rect width="42" height="27" rx="9" fill="#00A8E8"/>
<path d="M27.0714 14.4286H22.4286V19.0714C22.4286 19.3177 22.3307 19.5539 22.1566 19.728C21.9825 19.9022 21.7463 20 21.5 20C21.2537 20 21.0175 19.9022 20.8434 19.728C20.6693 19.5539 20.5714 19.3177 20.5714 19.0714V14.4286H15.9286C15.6823 14.4286 15.4461 14.3307 15.272 14.1566C15.0978 13.9825 15 13.7463 15 13.5C15 13.2537 15.0978 13.0175 15.272 12.8434C15.4461 12.6693 15.6823 12.5714 15.9286 12.5714H20.5714V7.92857C20.5714 7.6823 20.6693 7.44611 20.8434 7.27197C21.0175 7.09783 21.2537 7 21.5 7C21.7463 7 21.9825 7.09783 22.1566 7.27197C22.3307 7.44611 22.4286 7.6823 22.4286 7.92857V12.5714H27.0714C27.3177 12.5714 27.5539 12.6693 27.728 12.8434C27.9022 13.0175 28 13.2537 28 13.5C28 13.7463 27.9022 13.9825 27.728 14.1566C27.5539 14.3307 27.3177 14.4286 27.0714 14.4286Z" fill="white"/>
</svg>
