<svg width="22" height="20" viewBox="0 0 22 20" fill="none" xmlns="http://www.w3.org/2000/svg">
<path d="M15.75 9.01041H19.382C19.5524 9.0105 19.7199 9.05413 19.8687 9.13716C20.0175 9.22018 20.1426 9.33985 20.2322 9.48481C20.3218 9.62977 20.3728 9.7952 20.3805 9.96542C20.3881 10.1356 20.3522 10.305 20.276 10.4574L18.242 14.5264C18.1649 14.6806 18.0492 14.8122 17.9062 14.9085C17.7632 15.0048 17.5977 15.0625 17.4259 15.076C17.254 15.0895 17.0816 15.0583 16.9253 14.9855C16.769 14.9127 16.6342 14.8007 16.534 14.6604L14.41 11.6904M1 16.0104H4.76C5.13273 16.013 5.49877 15.9114 5.81682 15.717C6.13487 15.5227 6.39228 15.2433 6.56 14.9104L8 12.0104M1 16.0104V18.0104M1 16.0104V14.0104M6 6.01041H6.01M16.106 6.06341C16.343 6.18206 16.5232 6.38995 16.607 6.6414C16.6909 6.89285 16.6714 7.16729 16.553 7.40441L13.447 13.6154C13.3883 13.7329 13.3069 13.8377 13.2077 13.9237C13.1084 14.0098 12.9932 14.0754 12.8686 14.1169C12.744 14.1584 12.6124 14.175 12.4814 14.1656C12.3504 14.1563 12.2225 14.1212 12.105 14.0624L2.61 9.31041C1.92033 8.96303 1.39635 8.3566 1.15272 7.62382C0.909086 6.89104 0.965637 6.0916 1.31 5.40041L2.69 2.61041C2.862 2.26764 3.09984 1.9621 3.38994 1.71125C3.68003 1.4604 4.0167 1.26915 4.38072 1.14843C4.74474 1.02771 5.12897 0.979885 5.51147 1.00768C5.89398 1.03547 6.26726 1.13834 6.61 1.31041L16.106 6.06341Z" stroke="#00A8E8" stroke-width="2" stroke-linecap="round" stroke-linejoin="round"/>
</svg>
