<svg width="20" height="20" viewBox="0 0 20 20" fill="none" xmlns="http://www.w3.org/2000/svg">
<path fill-rule="evenodd" clip-rule="evenodd" d="M10 20C11.3132 20 12.6136 19.7413 13.8268 19.2388C15.0401 18.7362 16.1425 17.9997 17.0711 17.0711C17.9997 16.1425 18.7362 15.0401 19.2388 13.8268C19.7413 12.6136 20 11.3132 20 10C20 8.68678 19.7413 7.38642 19.2388 6.17317C18.7362 4.95991 17.9997 3.85752 17.0711 2.92893C16.1425 2.00035 15.0401 1.26375 13.8268 0.761205C12.6136 0.258658 11.3132 -1.95685e-08 10 0C7.34784 3.95203e-08 4.8043 1.05357 2.92893 2.92893C1.05357 4.8043 0 7.34784 0 10C0 12.6522 1.05357 15.1957 2.92893 17.0711C4.8043 18.9464 7.34784 20 10 20ZM8.64778 5.54444L14.9189 9.02889C15.092 9.12515 15.2363 9.26594 15.3367 9.43668C15.4371 9.60742 15.4901 9.80191 15.4901 10C15.4901 10.1981 15.4371 10.3926 15.3367 10.5633C15.2363 10.7341 15.092 10.8749 14.9189 10.9711L8.64778 14.4556C8.44472 14.5684 8.2157 14.6263 7.9834 14.6234C7.7511 14.6205 7.52359 14.557 7.32341 14.4391C7.12323 14.3212 6.95732 14.153 6.84212 13.9513C6.72693 13.7495 6.66645 13.5212 6.66667 13.2889V6.71111C6.66645 6.4788 6.72693 6.25045 6.84212 6.04871C6.95732 5.84696 7.12323 5.67882 7.32341 5.56093C7.52359 5.44305 7.7511 5.37951 7.9834 5.37662C8.2157 5.37372 8.44472 5.43158 8.64778 5.54444Z" fill="#717375"/>
</svg>
