<svg width="18" height="20" viewBox="0 0 18 20" fill="none" xmlns="http://www.w3.org/2000/svg">
<path d="M5.288 9.713C5.096 9.521 5 9.28333 5 9C5 8.71667 5.096 8.47933 5.288 8.288C5.48 8.09667 5.71733 8.00067 6 8C6.28267 7.99933 6.52033 8.09533 6.713 8.288C6.90567 8.48067 7.00133 8.718 7 9C6.99867 9.282 6.90267 9.51967 6.712 9.713C6.52133 9.90633 6.284 10.002 6 10C5.716 9.998 5.47867 9.902 5.288 9.712M11.288 9.712C11.096 9.52133 11 9.284 11 9C11 8.716 11.096 8.47867 11.288 8.288C11.48 8.09733 11.7173 8.00133 12 8C12.2827 7.99867 12.5203 8.09467 12.713 8.288C12.9057 8.48133 13.0013 8.71867 13 9C12.9987 9.28133 12.9027 9.519 12.712 9.713C12.5213 9.907 12.284 10.0027 12 10C11.716 9.99733 11.4787 9.90133 11.288 9.712ZM2 20C1.45 20 0.979333 19.8043 0.588 19.413C0.196667 19.0217 0.000666667 18.5507 0 18V14C0 13.6667 0.0793332 13.346 0.238 13.038C0.396667 12.73 0.650667 12.4757 1 12.275V8C1 6.9 1.20833 5.86233 1.625 4.887C2.04167 3.91167 2.61267 3.06167 3.338 2.337C4.06333 1.61233 4.91333 1.04167 5.888 0.625C6.86267 0.208333 7.9 0 9 0C10.1 0 11.1377 0.208333 12.113 0.625C13.0883 1.04167 13.9383 1.61267 14.663 2.338C15.3877 3.06333 15.9583 3.91333 16.375 4.888C16.7917 5.86267 17 6.9 17 8V12.275C17.35 12.475 17.6043 12.7293 17.763 13.038C17.9217 13.3467 18.0007 13.6673 18 14V18C18 18.55 17.8043 19.021 17.413 19.413C17.0217 19.805 16.5507 20.0007 16 20H2ZM2 14V18H4V14H2ZM6 18H8V14H6V18ZM3 12H8V2.075C6.56667 2.30833 5.375 2.979 4.425 4.087C3.475 5.195 3 6.49933 3 8V12ZM10 12H15V8C15 6.5 14.525 5.196 13.575 4.088C12.625 2.98 11.4333 2.309 10 2.075V12ZM10 18H12V14H10V18ZM14 18H16V14H14V18Z" fill="#00A8E8"/>
</svg>
