<svg width="20" height="20" viewBox="0 0 20 20" fill="none" xmlns="http://www.w3.org/2000/svg">
<path fill-rule="evenodd" clip-rule="evenodd" d="M0 0V20H2V11H4C4 11.2652 4.10536 11.5196 4.29289 11.7071C4.48043 11.8946 4.73478 12 5 12H11C11.2652 12 11.5196 11.8946 11.7071 11.7071C11.8946 11.5196 12 11.2652 12 11H13C13.2652 11 13.5196 11.1054 13.7071 11.2929C13.8946 11.4804 14 11.7348 14 12V14H20V11C20 9.4087 19.3679 7.88258 18.2426 6.75736C17.1174 5.63214 15.5913 5 14 5H12C12 4.73478 11.8946 4.48043 11.7071 4.29289C11.5196 4.10536 11.2652 4 11 4H9V2H11C11.2652 2 11.5196 1.89464 11.7071 1.70711C11.8946 1.51957 12 1.26522 12 1C12 0.734784 11.8946 0.48043 11.7071 0.292893C11.5196 0.105357 11.2652 0 11 0H5C4.73478 0 4.48043 0.105357 4.29289 0.292893C4.10536 0.48043 4 0.734784 4 1C4 1.26522 4.10536 1.51957 4.29289 1.70711C4.48043 1.89464 4.73478 2 5 2H7V4H5C4.73478 4 4.48043 4.10536 4.29289 4.29289C4.10536 4.48043 4 4.73478 4 5H2V0H0ZM4 7H2V9H4V7ZM12 7V9H13C13.7956 9 14.5587 9.31607 15.1213 9.87868C15.6839 10.4413 16 11.2044 16 12H18V11C18 9.93913 17.5786 8.92172 16.8284 8.17157C16.0783 7.42143 15.0609 7 14 7H12ZM10 6H6V10H10V6Z" fill="#00A8E8"/>
<path d="M17 14.536L17.73 15.316L17.731 15.318L17.733 15.32L17.738 15.324L17.751 15.339L17.779 15.37L17.793 15.386L17.929 15.546C18.0732 15.7226 18.2087 15.9062 18.335 16.096C18.603 16.503 19 17.207 19 17.97C19 19.063 18.133 20 17 20C15.867 20 15 19.063 15 17.97C15 17.207 15.397 16.503 15.665 16.097C15.8422 15.8313 16.0373 15.5781 16.249 15.339L16.263 15.324L16.269 15.318L17 14.536Z" fill="#00A8E8"/>
</svg>
