<svg width="13" height="15" viewBox="0 0 13 15" fill="none" xmlns="http://www.w3.org/2000/svg">
<path d="M11.5835 2C12.1358 2 12.5835 1.55228 12.5835 1C12.5835 0.447715 12.1358 0 11.5835 0V1V2ZM1 0C0.447715 0 0 0.447715 0 1C0 1.55228 0.447715 2 1 2V1V0ZM1 8V7C0.595538 7 0.230901 7.24364 0.0761204 7.61732C-0.0786605 7.99099 0.00689524 8.42111 0.292893 8.70711L1 8ZM5.54289 13.9571C5.93342 14.3476 6.56658 14.3476 6.95711 13.9571C7.34763 13.5666 7.34763 12.9334 6.95711 12.5429L6.25 13.25L5.54289 13.9571ZM7.05692 3.75924C6.50617 3.80044 6.0931 4.28031 6.13431 4.83105C6.17551 5.3818 6.65538 5.79486 7.20612 5.75366L7.13152 4.75645L7.05692 3.75924ZM7.48989 9.54673C6.93915 9.58793 6.52608 10.0678 6.56728 10.6185C6.60848 11.1693 7.08835 11.5824 7.6391 11.5412L7.5645 10.5439L7.48989 9.54673ZM11.5835 1V0H3.625V1V2H11.5835V1ZM3.625 1V0H1V1V2H3.625V1ZM3.625 1V2C4.28804 2 4.92393 2.26339 5.39277 2.73223L6.09987 2.02513L6.80698 1.31802C5.96307 0.474105 4.81847 0 3.625 0V1ZM6.09987 2.02513L5.39277 2.73223C5.86161 3.20107 6.125 3.83696 6.125 4.5H7.125H8.125C8.125 3.30653 7.6509 2.16193 6.80698 1.31802L6.09987 2.02513ZM7.125 4.5H6.125C6.125 5.16304 5.86161 5.79893 5.39277 6.26777L6.09987 6.97487L6.80698 7.68198C7.6509 6.83807 8.125 5.69347 8.125 4.5H7.125ZM6.09987 6.97487L5.39277 6.26777C4.92393 6.73661 4.28804 7 3.625 7V8V9C4.81847 9 5.96307 8.52589 6.80698 7.68198L6.09987 6.97487ZM3.625 8V7H1V8V9H3.625V8ZM1 8L0.292893 8.70711L5.54289 13.9571L6.25 13.25L6.95711 12.5429L1.70711 7.29289L1 8ZM7.13152 4.75645L7.20612 5.75366C8.20133 5.67921 9.07905 5.8924 9.68896 6.24542C10.304 6.60142 10.5584 7.03464 10.5863 7.40793L11.5835 7.33332L12.5808 7.25872C12.4891 6.03384 11.6871 5.09111 10.6909 4.51447C9.68945 3.93484 8.40094 3.65869 7.05692 3.75924L7.13152 4.75645ZM11.5835 7.33332L10.5863 7.40793C10.6143 7.78121 10.4272 8.24746 9.87192 8.69101C9.32133 9.13085 8.4851 9.47227 7.48989 9.54673L7.5645 10.5439L7.6391 11.5412C8.98312 11.4406 10.2162 10.9758 11.1202 10.2536C12.0196 9.53516 12.6724 8.4836 12.5808 7.25872L11.5835 7.33332Z" fill="black"/>
</svg>
