<svg width="21" height="21" viewBox="0 0 21 21" fill="none" xmlns="http://www.w3.org/2000/svg">
<path fill-rule="evenodd" clip-rule="evenodd" d="M13.9773 7.45454C13.9773 8.44307 13.5846 9.39112 12.8856 10.0901C12.1866 10.7891 11.2385 11.1818 10.25 11.1818C9.26144 11.1818 8.3134 10.7891 7.6144 10.0901C6.9154 9.39112 6.52271 8.44307 6.52271 7.45454C6.52271 6.46601 6.9154 5.51796 7.6144 4.81896C8.3134 4.11996 9.26144 3.72727 10.25 3.72727C11.2385 3.72727 12.1866 4.11996 12.8856 4.81896C13.5846 5.51796 13.9773 6.46601 13.9773 7.45454ZM12.1136 7.45454C12.1136 7.94881 11.9173 8.42283 11.5678 8.77233C11.2183 9.12183 10.7442 9.31818 10.25 9.31818C9.75571 9.31818 9.28169 9.12183 8.93219 8.77233C8.58269 8.42283 8.38634 7.94881 8.38634 7.45454C8.38634 6.96027 8.58269 6.48625 8.93219 6.13675C9.28169 5.78725 9.75571 5.5909 10.25 5.5909C10.7442 5.5909 11.2183 5.78725 11.5678 6.13675C11.9173 6.48625 12.1136 6.96027 12.1136 7.45454Z" fill="#717375"/>
<path fill-rule="evenodd" clip-rule="evenodd" d="M10.25 0C4.5892 0 0 4.5892 0 10.25C0 15.9108 4.5892 20.5 10.25 20.5C15.9108 20.5 20.5 15.9108 20.5 10.25C20.5 4.5892 15.9108 0 10.25 0ZM1.86364 10.25C1.86364 12.1975 2.52802 13.9903 3.64155 15.4141C4.42375 14.3874 5.43264 13.5553 6.58948 12.9828C7.74632 12.4103 9.01981 12.1128 10.3106 12.1136C11.5847 12.1122 12.8424 12.4017 13.9876 12.9601C15.1329 13.5185 16.1355 14.3311 16.919 15.3359C17.7264 14.2769 18.27 13.041 18.5049 11.7303C18.7398 10.4196 18.6591 9.07175 18.2697 7.79837C17.8802 6.525 17.1932 5.36266 16.2653 4.40753C15.3375 3.45241 14.1956 2.73196 12.934 2.30579C11.6724 1.87962 10.3275 1.75999 9.01055 1.95679C7.69358 2.15359 6.4424 2.66117 5.36053 3.43753C4.27867 4.21388 3.39723 5.2367 2.78915 6.42134C2.18106 7.60599 1.8638 8.9184 1.86364 10.25ZM10.25 18.6364C8.32478 18.6395 6.45763 17.9772 4.96473 16.7615C5.56557 15.9011 6.36543 15.1986 7.29621 14.7138C8.22698 14.2291 9.26112 13.9764 10.3106 13.9773C11.3469 13.9764 12.3685 14.2228 13.2905 14.696C14.2125 15.1692 15.0083 15.8556 15.6117 16.6982C14.1072 17.9533 12.2093 18.6394 10.25 18.6364Z" fill="#717375"/>
</svg>
