<svg width="20" height="16" viewBox="0 0 20 16" fill="none" xmlns="http://www.w3.org/2000/svg">
<path d="M10 10.9683C10.6176 10.9683 11.2099 11.2334 11.6466 11.7052C12.0833 12.177 12.3287 12.8169 12.3287 13.4841C12.3287 14.1514 12.0833 14.7913 11.6466 15.2631C11.2099 15.7349 10.6176 16 10 16C9.38239 16 8.79009 15.7349 8.35337 15.2631C7.91666 14.7913 7.67132 14.1514 7.67132 13.4841C7.67132 12.8169 7.91666 12.177 8.35337 11.7052C8.79009 11.2334 9.38239 10.9683 10 10.9683ZM10 12.3393C9.71896 12.3393 9.44944 12.4599 9.25072 12.6746C9.052 12.8893 8.94036 13.1805 8.94036 13.4841C8.94036 13.7878 9.052 14.079 9.25072 14.2937C9.44944 14.5083 9.71896 14.629 10 14.629C10.281 14.629 10.5506 14.5083 10.7493 14.2937C10.948 14.079 11.0596 13.7878 11.0596 13.4841C11.0596 13.1805 10.948 12.8893 10.7493 12.6746C10.5506 12.4599 10.281 12.3393 10 12.3393ZM10 7.31448C11.0585 7.31477 12.096 7.63288 12.9969 8.23329C13.8977 8.8337 14.6264 9.69279 15.1015 10.7147L14.1434 11.7498C13.8203 10.846 13.2516 10.069 12.5121 9.52107C11.7725 8.97311 10.8968 8.67985 10 8.67985C9.10324 8.67985 8.22748 8.97311 7.48792 9.52107C6.74837 10.069 6.17965 10.846 5.8566 11.7498L4.89848 10.7147C5.37361 9.69279 6.10227 8.8337 7.00312 8.23329C7.90396 7.63288 8.94153 7.31477 10 7.31448ZM10 3.66067C13.1599 3.66067 15.9454 5.40189 17.5761 8.04799L16.6561 9.03513C15.9551 7.80909 14.9756 6.79704 13.8106 6.09513C12.6456 5.39322 11.3339 5.02477 10 5.02477C8.66611 5.02477 7.35438 5.39322 6.1894 6.09513C5.02443 6.79704 4.04492 7.80909 3.34391 9.03513L2.42386 8.04113C3.2534 6.69108 4.37939 5.5839 5.70135 4.81836C7.0233 4.05281 8.50011 3.65273 10 3.65381V3.66067ZM10 0C14.0926 0 17.7284 2.12511 20 5.4156L19.0926 6.40274C18.0563 4.84302 16.691 3.57232 15.1099 2.69579C13.5288 1.81925 11.7772 1.36207 10 1.36207C8.22285 1.36207 6.47124 1.81925 4.8901 2.69579C3.30895 3.57232 1.94372 4.84302 0.90736 6.40274L0 5.42245C2.27157 2.13196 5.90101 0.00685534 10 0.00685534V0Z" fill="#00A8E8"/>
</svg>
