<svg width="21" height="18" viewBox="0 0 21 18" fill="none" xmlns="http://www.w3.org/2000/svg">
<path d="M18 10.5C18 10.6989 17.921 10.8897 17.7803 11.0303C17.6397 11.171 17.4489 11.25 17.25 11.25C17.0511 11.25 16.8603 11.171 16.7197 11.0303C16.579 10.8897 16.5 10.6989 16.5 10.5C16.5 10.3011 16.579 10.1103 16.7197 9.96967C16.8603 9.82902 17.0511 9.75 17.25 9.75C17.4489 9.75 17.6397 9.82902 17.7803 9.96967C17.921 10.1103 18 10.3011 18 10.5ZM3.75 9.75C3.55109 9.75 3.36032 9.82902 3.21967 9.96967C3.07902 10.1103 3 10.3011 3 10.5C3 10.6989 3.07902 10.8897 3.21967 11.0303C3.36032 11.171 3.55109 11.25 3.75 11.25C3.94891 11.25 4.13968 11.171 4.28033 11.0303C4.42098 10.8897 4.5 10.6989 4.5 10.5C4.5 10.3011 4.42098 10.1103 4.28033 9.96967C4.13968 9.82902 3.94891 9.75 3.75 9.75ZM19.275 6L19.5825 6.84C20.0223 7.18729 20.3782 7.62929 20.6236 8.13311C20.869 8.63692 20.9977 9.18959 21 9.75V16.5C21 16.8978 20.842 17.2794 20.5607 17.5607C20.2794 17.842 19.8978 18 19.5 18H18C17.6022 18 17.2206 17.842 16.9393 17.5607C16.658 17.2794 16.5 16.8978 16.5 16.5V15H4.5V16.5C4.5 16.8978 4.34196 17.2794 4.06066 17.5607C3.77936 17.842 3.39782 18 3 18H1.5C1.10218 18 0.720644 17.842 0.43934 17.5607C0.158035 17.2794 0 16.8978 0 16.5V9.75C0 8.5725 0.5625 7.53 1.4175 6.84L1.725 6H0V4.5H2.25V4.6125L3.615 0.975C3.72182 0.689099 3.91332 0.442585 4.16391 0.268371C4.41451 0.0941578 4.71229 0.000534193 5.0175 0H15.9825C16.605 0 17.1675 0.39 17.385 0.975L18.75 4.6125V4.5H21V6H19.275ZM3 15H1.5V16.5H3V15ZM19.5 15H18V16.5H19.5V15ZM19.5 13.5V9.75C19.5 9.15326 19.2629 8.58097 18.841 8.15901C18.419 7.73705 17.8467 7.5 17.25 7.5H3.75C3.15326 7.5 2.58097 7.73705 2.15901 8.15901C1.73705 8.58097 1.5 9.15326 1.5 9.75V13.5H19.5ZM17.25 6H17.67L15.975 1.5H5.0175L3.33 6H17.25ZM6 11.25H15V9.75H6V11.25Z" fill="#00A8E8"/>
</svg>
